<svg width="201" height="226" viewBox="0 0 201 226" fill="none" xmlns="http://www.w3.org/2000/svg">
<path d="M-0.000249866 61.7949L125.303 38.3071L154.579 194.095L29.2764 217.583L-0.000249866 61.7949Z" fill="#8EC0EF"/>
<path d="M6.07559 45.8476L25.0047 181.202L156.046 162.922L133.264 0L26.8696 14.8396L6.07559 45.8476Z" fill="white"/>
<path d="M22.5746 77.7039C22.3528 78.8644 23.4978 79.93 24.5563 79.8888C25.7435 79.8419 26.1221 78.4578 25.609 77.3728C25.0608 76.2093 23.8223 75.6914 22.815 76.1765C21.8136 76.658 21.5192 77.9677 22.242 79.0438C24.2087 81.9699 27.7082 77.4969 24.9912 75.884C23.958 75.2705 22.6607 75.7773 22.5735 76.9891C22.4886 78.1577 23.5726 79.372 24.6865 79.179C25.7888 78.9898 26.3671 77.5412 25.6006 76.4661C24.9644 75.5743 23.7579 75.5114 23.0523 76.0575C22.1714 76.7385 22.3888 78.1769 23.3813 78.8819C24.3107 79.5419 25.6185 79.4235 26.0466 78.3923C26.4483 77.4252 25.8473 76.1188 24.922 75.5635C23.8007 74.8903 22.6121 75.491 22.2793 76.6269C21.921 77.8446 22.6183 79.2244 23.8539 79.6746C25.014 80.097 26.1843 79.5512 26.465 78.3569C26.7418 77.1754 26.0655 75.7022 24.8324 75.3377C23.8073 75.0351 22.7175 75.5614 22.2924 76.4872C21.7939 77.5754 22.4128 78.943 23.5106 79.5144C24.6534 80.1072 25.926 79.8386 26.4953 78.77C26.9759 77.8655 25.4948 77.0047 25.0159 77.9021C24.8231 78.2631 24.0936 78.1606 23.8351 77.826C23.5262 77.4262 23.9472 77.0585 24.2754 76.9803C24.7426 76.8704 25.0648 77.3721 24.883 77.8291C24.6622 78.382 23.7184 78.0694 23.7958 77.424C23.8584 76.9026 24.5324 76.8516 24.5652 77.4517C24.5746 77.6266 24.4763 77.6158 24.2939 77.5702C24.2578 77.5607 24.0427 77.4276 24.1078 77.485C24.1231 77.498 24.0039 77.4826 24.1097 77.4713C24.2046 77.4619 24.2799 77.3837 24.3896 77.4087C24.3027 77.3894 24.4126 77.3017 24.3234 77.4236C24.2446 77.5306 24.2937 77.5132 24.2633 77.4919C24.1779 77.4313 24.1086 77.2611 24.2535 77.3237C24.5134 77.4357 24.2683 77.8022 24.1419 77.9605C24.0092 78.129 23.572 78.5379 23.4517 78.0526C23.3949 77.8244 23.6665 77.6388 23.8809 77.6872C24.0971 77.7366 24.2115 77.9429 24.2439 78.1578C24.2562 78.242 24.3509 78.1608 24.2456 78.1735C24.2359 78.175 24.1742 78.1525 24.1689 78.1428C24.11 78.0296 24.1423 78.2967 24.1677 78.166C24.3676 77.1187 22.7743 76.6598 22.5748 77.7005L22.5746 77.7039Z" fill="#5A8FC1"/>
<path d="M35.2632 74.6589C53.6471 72.5262 71.8975 69.7966 89.9904 66.4745C95.2085 65.5165 100.412 64.5094 105.603 63.4538C106.477 63.2766 105.919 61.6547 105.049 61.8322C87.0546 65.4862 68.8975 68.568 50.5993 71.0443C45.4385 71.7419 40.2645 72.3916 35.0821 72.9936C34.2007 73.0967 34.3751 74.7643 35.2639 74.6606L35.2632 74.6589Z" fill="#5A8FC1"/>
<path d="M35.1339 70.4323C48.6541 68.8795 62.1956 67.4487 75.5146 65.0644C80.02 64.2578 84.5056 63.3821 88.9834 62.4814C90.7276 62.1307 89.6141 58.9345 87.8767 59.283C74.7209 61.9305 61.4778 64.0759 48.0449 65.6275C43.6199 66.1385 39.1927 66.6354 34.7671 67.1446C34.0139 67.231 33.4313 67.7625 33.53 68.7328C33.611 69.5302 34.3854 70.519 35.1326 70.4328L35.1339 70.4323Z" fill="#5A8FC1"/>
<path d="M36.3311 80.8028C42.3552 80.2393 48.315 79.3881 54.2 78.2616C55.0722 78.0943 54.5166 76.511 53.6484 76.677C47.8831 77.7806 42.0494 78.6216 36.1494 79.1736C35.2653 79.2571 35.441 80.8864 36.3311 80.8028Z" fill="#5A8FC1"/>
<path d="M60.0235 76.2238C66.0476 75.6604 72.0074 74.8091 77.8924 73.6826C78.7646 73.5153 78.2089 71.932 77.3408 72.098C71.5769 73.2012 65.7418 74.0426 59.8418 74.5946C58.9577 74.6781 59.1334 76.3075 60.0235 76.2238Z" fill="#5A8FC1"/>
<path d="M25.8061 104.166C25.5842 105.327 26.7292 106.392 27.7878 106.351C28.975 106.304 29.3536 104.92 28.8404 103.835C28.2923 102.671 27.0538 102.154 26.0464 102.639C25.0451 103.12 24.7506 104.43 25.4734 105.506C27.4401 108.432 30.9397 103.959 28.2227 102.346C27.1894 101.733 25.8921 102.239 25.805 103.451C25.7201 104.62 26.804 105.834 27.918 105.641C29.0202 105.452 29.5986 104.003 28.8321 102.928C28.1959 102.036 26.9894 101.974 26.2837 102.52C25.4028 103.201 25.6202 104.639 26.6127 105.344C27.5422 106.004 28.8499 105.886 29.278 104.854C29.6797 103.887 29.0787 102.581 28.1534 102.026C27.0322 101.352 25.8436 101.953 25.5107 103.089C25.1524 104.307 25.8497 105.687 27.0853 106.137C28.2454 106.559 29.4157 106.013 29.6964 104.819C29.9733 103.638 29.2969 102.164 28.0638 101.8C27.0387 101.497 25.949 102.024 25.5238 102.949C25.0253 104.038 25.6443 105.405 26.742 105.977C27.8848 106.569 29.1574 106.301 29.7268 105.232C30.2073 104.328 28.7262 103.467 28.2473 104.364C28.0545 104.725 27.325 104.623 27.0666 104.288C26.7576 103.888 27.1786 103.521 27.5068 103.442C27.974 103.333 28.2962 103.834 28.1144 104.291C27.8936 104.844 26.9498 104.532 27.0273 103.886C27.0898 103.365 27.7638 103.314 27.7966 103.914C27.8061 104.089 27.7078 104.078 27.5253 104.032C27.4893 104.023 27.2742 103.89 27.3392 103.947C27.3546 103.96 27.2353 103.945 27.3412 103.933C27.436 103.924 27.5114 103.846 27.6211 103.871C27.5342 103.852 27.644 103.764 27.5548 103.886C27.4761 103.993 27.5251 103.975 27.4948 103.954C27.4094 103.893 27.34 103.723 27.485 103.786C27.7448 103.898 27.4997 104.264 27.3734 104.423C27.2407 104.591 26.8034 105 26.6831 104.515C26.6264 104.287 26.8979 104.101 27.1123 104.149C27.3286 104.199 27.443 104.405 27.4753 104.62C27.4876 104.704 27.5824 104.623 27.4771 104.636C27.4674 104.637 27.4057 104.615 27.4004 104.605C27.3415 104.492 27.3737 104.759 27.3992 104.628C27.599 103.581 26.0058 103.122 25.8062 104.163L25.8061 104.166Z" fill="#5A8FC1"/>
<path d="M38.4947 101.121C56.8785 98.9883 75.129 96.2587 93.2218 92.9366C98.44 91.9787 103.643 90.9716 108.834 89.916C109.708 89.7387 109.15 88.1168 108.281 88.2944C90.2861 91.9484 72.129 95.0301 53.8307 97.5064C48.6699 98.2041 43.496 98.8538 38.3136 99.4558C37.4321 99.5589 37.6065 101.226 38.4953 101.123L38.4947 101.121Z" fill="#5A8FC1"/>
<path d="M38.3654 96.8928C51.8856 95.3399 65.427 93.9091 78.7461 91.5249C83.2514 90.7183 87.7371 89.8426 92.2149 88.9418C93.959 88.5911 92.8456 85.395 91.1081 85.7435C77.9524 88.3909 64.7092 90.5363 51.2763 92.088C46.8514 92.5989 42.4242 93.0958 37.9986 93.6051C37.2454 93.6914 36.6628 94.2229 36.7614 95.1933C36.8424 95.9906 37.6168 96.9794 38.364 96.8932L38.3654 96.8928Z" fill="#5A8FC1"/>
<path d="M39.5625 107.265C45.5866 106.701 51.5464 105.85 57.4315 104.724C58.3037 104.556 57.748 102.973 56.8798 103.139C51.1146 104.243 45.2808 105.084 39.3808 105.636C38.4968 105.719 38.6725 107.349 39.5625 107.265Z" fill="#5A8FC1"/>
<path d="M63.2549 102.684C69.279 102.121 75.2388 101.27 81.1239 100.143C81.9961 99.9759 81.4404 98.3926 80.5722 98.5586C74.807 99.6622 68.9732 100.503 63.0732 101.055C62.1891 101.139 62.3648 102.768 63.2549 102.684Z" fill="#5A8FC1"/>
<path d="M30.769 129.492C30.5471 130.652 31.6921 131.718 32.7507 131.677C33.9379 131.63 34.3165 130.246 33.8033 129.161C33.2552 127.997 32.0167 127.479 31.0093 127.964C30.008 128.446 29.7135 129.756 30.4363 130.832C32.403 133.758 35.9025 129.285 33.1856 127.672C32.1523 127.059 30.855 127.565 30.7679 128.777C30.6829 129.946 31.7669 131.16 32.8809 130.967C33.9831 130.778 34.5615 129.329 33.7949 128.254C33.1588 127.362 31.9523 127.299 31.2466 127.845C30.3657 128.526 30.5831 129.965 31.5756 130.67C32.5051 131.33 33.8128 131.212 34.2409 130.18C34.6426 129.213 34.0416 127.907 33.1163 127.351C31.9951 126.678 30.8065 127.279 30.4736 128.415C30.1153 129.633 30.8126 131.012 32.0482 131.463C33.2083 131.885 34.3786 131.339 34.6593 130.145C34.9361 128.963 34.2598 127.49 33.0267 127.126C32.0016 126.823 30.9119 127.349 30.4867 128.275C29.9882 129.363 30.6072 130.731 31.7049 131.302C32.8477 131.895 34.1203 131.627 34.6897 130.558C35.1702 129.653 33.6891 128.793 33.2102 129.69C33.0174 130.051 32.2879 129.949 32.0294 129.614C31.7205 129.214 32.1415 128.846 32.4697 128.768C32.9369 128.658 33.2591 129.16 33.0773 129.617C32.8565 130.17 31.9127 129.857 31.9902 129.212C32.0527 128.691 32.7267 128.64 32.7595 129.24C32.769 129.415 32.6707 129.404 32.4882 129.358C32.4522 129.349 32.2371 129.216 32.3021 129.273C32.3175 129.286 32.1982 129.271 32.3041 129.259C32.3989 129.25 32.4743 129.172 32.584 129.197C32.4971 129.177 32.6069 129.09 32.5177 129.212C32.439 129.319 32.488 129.301 32.4577 129.28C32.3723 129.219 32.3029 129.049 32.4479 129.112C32.7077 129.224 32.4626 129.59 32.3362 129.748C32.2036 129.917 31.7663 130.326 31.646 129.841C31.5893 129.612 31.8608 129.427 32.0752 129.475C32.2915 129.525 32.4058 129.731 32.4382 129.946C32.4505 130.03 32.5453 129.949 32.44 129.962C32.4303 129.963 32.3685 129.94 32.3633 129.931C32.3044 129.818 32.3366 130.085 32.3621 129.954C32.5619 128.907 30.9686 128.448 30.7691 129.488L30.769 129.492Z" fill="#5A8FC1"/>
<path d="M43.4609 127.054C55.189 125.726 66.8679 124.343 78.3741 122.116C82.6172 121.295 86.8513 120.441 91.0859 119.588C91.9591 119.413 91.3972 117.787 90.5287 117.962C79.0549 120.269 67.5994 122.519 55.8942 123.929C51.6921 124.435 47.4837 124.907 43.2751 125.383C42.3936 125.482 42.5726 127.155 43.4609 127.054Z" fill="#5A8FC1"/>
<path d="M43.3342 122.639C52.3443 121.631 61.4392 121.01 70.2852 119.331C74.124 118.603 77.9514 117.833 81.7812 117.073C83.5226 116.727 82.4022 113.532 80.6675 113.875C75.2148 114.958 69.7769 116.125 64.2684 117.008C63.5318 117.125 62.7935 117.235 62.0516 117.334C61.6966 117.382 61.3404 117.427 60.9836 117.47C60.6007 117.516 60.9822 117.47 60.7504 117.496C60.5233 117.523 60.2955 117.548 60.0677 117.572C58.1661 117.78 56.2573 117.958 54.3516 118.147C50.5488 118.524 46.7531 118.929 42.9608 119.354C42.2086 119.438 41.628 119.967 41.729 120.937C41.8119 121.733 42.5881 122.723 43.3342 122.639Z" fill="#5A8FC1"/>
<path d="M44.5304 132.574C50.5542 132.026 56.5129 131.188 62.3962 130.074C63.2682 129.908 62.7085 128.316 61.8406 128.48C56.0771 129.572 50.2444 130.399 44.3447 130.937C43.4607 131.018 43.6404 132.655 44.5304 132.574Z" fill="#5A8FC1"/>
<path d="M68.2233 127.993C74.2471 127.445 80.2058 126.608 86.0891 125.493C86.961 125.328 86.4014 123.735 85.5335 123.9C79.7699 124.991 73.9372 125.819 68.0375 126.356C67.1535 126.437 67.3333 128.075 68.2233 127.993Z" fill="#5A8FC1"/>
<path d="M28.3444 14.9819C30.2138 24.1726 31.6929 33.4404 32.7746 42.7562C32.795 42.9336 32.6349 43.1779 32.4514 43.2084C23.9478 44.6421 15.3844 45.6744 6.78176 46.2909C6.19214 46.3331 6.16591 45.4156 6.75408 45.3734C15.2723 44.7627 23.7585 43.7508 32.1806 42.3302C32.0729 42.4814 31.9652 42.6312 31.856 42.7824C30.783 33.5466 29.3184 24.3616 27.4666 15.2508C27.3501 14.6765 28.2265 14.4017 28.3444 14.9804V14.9819Z" fill="#8EC0EF"/>
<path d="M61.4914 159.748L55.2312 162.274C48.5182 164.981 44.1245 171.487 44.1245 178.716V222.423C44.1245 224.005 45.4085 225.288 46.9925 225.288H197.167C198.751 225.288 200.035 224.005 200.035 222.423V35.501C200.035 33.919 198.751 32.6366 197.167 32.6366H76.5813C74.9974 32.6366 73.7133 33.919 73.7133 35.501V141.653C73.7133 149.61 68.8784 156.769 61.4914 159.747V159.748Z" fill="#4890D3"/>
<path d="M94.7488 56.9301H175.743C177.039 56.9301 178.089 57.9794 178.089 59.2739V91.0453C178.089 92.3398 177.039 93.3892 175.743 93.3892H94.7488C93.4527 93.3892 92.4019 92.3398 92.4019 91.0453V59.2739C92.4019 57.9794 93.4527 56.9301 94.7488 56.9301Z" fill="white"/>
<path d="M101.003 81.3357C118.062 81.8897 135.132 81.9653 152.188 81.5625C157.106 81.4462 162.024 81.2892 166.94 81.0958C167.768 81.0638 167.617 79.7392 166.793 79.7712C149.752 80.4444 132.691 80.6509 115.633 80.3732C110.821 80.2946 106.011 80.1769 101.201 80.0198C100.383 79.9937 100.176 81.3081 101.003 81.3343V81.3357Z" fill="#5A8FC1"/>
<path d="M101.105 86.9686C106.893 87.2289 112.691 87.2551 118.482 87.0515C119.339 87.021 119.189 85.6978 118.335 85.7269C112.663 85.9261 106.985 85.9072 101.314 85.6513C100.466 85.6135 100.247 86.9279 101.103 86.9672L101.105 86.9686Z" fill="#5A8FC1"/>
<path d="M123.976 87.3394C129.766 87.5996 135.562 87.6258 141.353 87.4222C142.211 87.3917 142.061 86.0686 141.206 86.0977C135.534 86.2968 129.856 86.2779 124.187 86.022C123.338 85.9842 123.12 87.2987 123.976 87.3379V87.3394Z" fill="#5A8FC1"/>
</svg>
