<svg width="245" height="109" viewBox="0 0 245 109" fill="none" xmlns="http://www.w3.org/2000/svg">
<rect y="51" width="245" height="58" rx="29" fill="#EAF4FD"/>
<g clip-path="url(#clip0_62_1675)">
<path d="M140.904 87H85.8078C84.622 87 83.6606 86.0386 83.6606 84.8528V18.7371C83.6606 17.5513 84.622 16.5899 85.8078 16.5899H140.904C142.09 16.5899 143.051 17.5513 143.051 18.7371V22.9687H148.483C149.668 22.9687 150.63 23.9301 150.63 25.1158C150.63 26.3016 149.668 27.263 148.483 27.263H143.051V32.7958H145.738C146.924 32.7958 147.885 33.7572 147.885 34.9429C147.885 36.1287 146.924 37.0901 145.738 37.0901H143.051V42.6231H148.483C149.668 42.6231 150.63 43.5845 150.63 44.7703C150.63 45.9561 149.668 46.9175 148.483 46.9175H143.051V52.45H145.738C146.924 52.45 147.885 53.4114 147.885 54.5972C147.885 55.7829 146.924 56.7443 145.738 56.7443H143.051V84.8528C143.052 86.0386 142.09 87 140.904 87ZM87.955 82.7056H138.757V20.8843H87.955V82.7056ZM159.192 70.4101H149.367C148.182 70.4101 147.22 69.4487 147.22 68.2629C147.22 67.0771 148.182 66.1157 149.367 66.1157H157.045V4.29436H106.243V11.0867C106.243 12.2725 105.281 13.2339 104.096 13.2339C102.91 13.2339 101.948 12.2725 101.948 11.0867V2.14718C101.948 0.9614 102.91 0 104.096 0H159.192C160.378 0 161.339 0.9614 161.339 2.14718V68.2629C161.339 69.4487 160.378 70.4101 159.192 70.4101ZM107.231 63.1419H96.7719C95.5861 63.1419 94.6247 62.1805 94.6247 60.9947C94.6247 59.8089 95.5861 58.8475 96.7719 58.8475H107.231C108.416 58.8475 109.378 59.8089 109.378 60.9947C109.378 62.1805 108.416 63.1419 107.231 63.1419ZM129.94 53.6371H96.7719C95.5861 53.6371 94.6247 52.6757 94.6247 51.4899C94.6247 50.3041 95.5861 49.3427 96.7719 49.3427H129.94C131.126 49.3427 132.088 50.3041 132.088 51.4899C132.088 52.6757 131.126 53.6371 129.94 53.6371ZM129.94 44.1323H96.7719C95.5861 44.1323 94.6247 43.1709 94.6247 41.9852C94.6247 40.7994 95.5861 39.838 96.7719 39.838H129.94C131.126 39.838 132.088 40.7994 132.088 41.9852C132.088 43.1709 131.126 44.1323 129.94 44.1323ZM107.231 34.6276H96.7719C95.5861 34.6276 94.6247 33.6662 94.6247 32.4804C94.6247 31.2946 95.5861 30.3332 96.7719 30.3332H107.231C108.416 30.3332 109.378 31.2946 109.378 32.4804C109.378 33.6662 108.416 34.6276 107.231 34.6276Z" fill="#205689"/>
</g>
<path d="M28.4355 86H25.7197V78.5645L25.7461 77.3516L25.79 76.0068C25.3389 76.458 25.0254 76.7539 24.8496 76.8945L23.373 78.0811L22.0635 76.4463L26.2031 73.1504H28.4355V86ZM32.3115 84.7344C32.3115 84.248 32.4434 83.8789 32.707 83.627C32.9707 83.375 33.3486 83.249 33.8408 83.249C34.3389 83.249 34.7197 83.3779 34.9834 83.6357C35.2529 83.8936 35.3877 84.2598 35.3877 84.7344C35.3877 85.2031 35.25 85.5723 34.9746 85.8418C34.7051 86.1055 34.3271 86.2373 33.8408 86.2373C33.3604 86.2373 32.9854 86.1084 32.7158 85.8506C32.4463 85.5869 32.3115 85.2148 32.3115 84.7344Z" fill="#4890D3"/>
<defs>
<clipPath id="clip0_62_1675">
<rect width="87" height="87" fill="white" transform="translate(79)"/>
</clipPath>
</defs>
</svg>
