<svg width="196" height="39" viewBox="0 0 196 39" fill="none" xmlns="http://www.w3.org/2000/svg">
<path d="M194.077 30.0162V14.9639L196 14.0576V30.0162H194.077Z" fill="white"/>
<path d="M181.512 30.0161V18.7213H183.435V19.8707C183.781 19.3918 184.197 19.0381 184.684 18.8097C185.17 18.5739 185.726 18.4561 186.352 18.4561C187.723 18.4561 188.739 18.8723 189.403 19.7049C190.066 20.5301 190.397 21.801 190.397 23.5177V30.0161H188.474V23.1862C188.474 22.2357 188.261 21.5063 187.833 20.9979C187.413 20.4822 186.816 20.2243 186.043 20.2243C185.181 20.2243 184.529 20.4711 184.087 20.9648C183.652 21.451 183.435 22.1768 183.435 23.1419V30.0161H181.512Z" fill="white"/>
<path d="M177.188 30.3035C176.761 30.3035 176.4 30.1525 176.105 29.8504C175.81 29.5483 175.663 29.1984 175.663 28.8005C175.663 28.4027 175.81 28.049 176.105 27.7396C176.4 27.4301 176.761 27.2754 177.188 27.2754C177.623 27.2754 177.988 27.4301 178.282 27.7396C178.584 28.049 178.735 28.4027 178.735 28.8005C178.735 29.1984 178.584 29.5483 178.282 29.8504C177.988 30.1525 177.623 30.3035 177.188 30.3035Z" fill="white"/>
<path d="M169.159 30.2813C168.128 30.2813 167.236 30.0271 166.485 29.5187C165.733 29.0104 165.155 28.3104 164.75 27.4189C164.344 26.5274 164.142 25.507 164.142 24.3576C164.142 23.1125 164.352 22.0515 164.772 21.1748C165.192 20.2906 165.777 19.6165 166.529 19.1523C167.281 18.6881 168.157 18.4561 169.159 18.4561C170.007 18.4561 170.784 18.6476 171.491 19.0307C172.198 19.4065 172.762 19.9922 173.182 20.7879C173.609 21.5763 173.823 22.5894 173.823 23.8271C173.823 24.004 173.816 24.2103 173.801 24.446C173.794 24.6744 173.779 24.9102 173.757 25.1533H166.109C166.183 25.8385 166.352 26.439 166.617 26.9548C166.883 27.4705 167.233 27.8757 167.667 28.1704C168.102 28.4578 168.614 28.6014 169.203 28.6014C169.682 28.6014 170.124 28.5167 170.53 28.3473C170.942 28.1778 171.325 27.9162 171.679 27.5626L172.806 28.8225C172.386 29.2424 171.863 29.5924 171.237 29.8724C170.618 30.145 169.926 30.2813 169.159 30.2813ZM166.087 23.4735H171.878C171.878 22.8325 171.771 22.2615 171.557 21.7605C171.351 21.2521 171.045 20.8543 170.64 20.5669C170.235 20.2796 169.741 20.1359 169.159 20.1359C168.341 20.1359 167.638 20.4011 167.048 20.9316C166.466 21.4621 166.146 22.3094 166.087 23.4735Z" fill="white"/>
<path d="M159.215 30.0161V18.7213H161.138V30.0161H159.215ZM160.165 16.6657C159.834 16.6657 159.55 16.5515 159.314 16.3231C159.086 16.0874 158.972 15.8037 158.972 15.4722C158.972 15.1259 159.086 14.8348 159.314 14.5991C159.55 14.3559 159.834 14.2344 160.165 14.2344C160.512 14.2344 160.799 14.3559 161.027 14.5991C161.263 14.8348 161.381 15.1259 161.381 15.4722C161.381 15.8037 161.263 16.0874 161.027 16.3231C160.799 16.5515 160.512 16.6657 160.165 16.6657Z" fill="white"/>
<path d="M154.409 30.2814C153.636 30.2814 153.043 30.0493 152.63 29.5852C152.225 29.121 152.022 28.4542 152.022 27.5848V20.4012H150.188V18.7214H152.022V14.986L153.945 14.0576V18.7214H156.73V20.4012H153.945V26.9438C153.945 27.4817 154.037 27.8758 154.222 28.1263C154.413 28.3695 154.712 28.491 155.117 28.491C155.633 28.491 156.192 28.2921 156.797 27.8943L156.576 29.773C156.244 29.9499 155.898 30.0788 155.537 30.1598C155.183 30.2409 154.807 30.2814 154.409 30.2814Z" fill="white"/>
<path d="M143.232 30.2813C142.009 30.2813 141.047 29.9424 140.347 29.2645C139.647 28.5867 139.297 27.6584 139.297 26.4795C139.297 25.7207 139.471 25.0612 139.817 24.5013C140.163 23.9413 140.653 23.5103 141.287 23.2083C141.92 22.8988 142.664 22.7441 143.519 22.7441C144.072 22.7441 144.587 22.8067 145.066 22.932C145.553 23.0498 146.009 23.2304 146.437 23.4735V22.6778C146.437 21.801 146.238 21.16 145.84 20.7548C145.442 20.3422 144.823 20.1359 143.983 20.1359C143.445 20.1359 142.885 20.2354 142.303 20.4343C141.729 20.6332 141.191 20.9095 140.69 21.2632L140.137 19.6496C140.705 19.2739 141.349 18.9828 142.071 18.7766C142.801 18.5629 143.519 18.4561 144.226 18.4561C145.567 18.4561 146.573 18.7987 147.243 19.4839C147.914 20.1617 148.249 21.1748 148.249 22.5231V30.0161H146.437V28.9772C145.995 29.3972 145.497 29.7213 144.945 29.9497C144.392 30.1708 143.821 30.2813 143.232 30.2813ZM143.519 28.6014C144.042 28.6014 144.558 28.4725 145.066 28.2146C145.582 27.9568 146.039 27.5921 146.437 27.1205V25.1754C146.061 24.9397 145.634 24.7555 145.155 24.6229C144.676 24.4902 144.219 24.4239 143.784 24.4239C142.959 24.4239 142.307 24.6118 141.828 24.9876C141.349 25.356 141.11 25.8606 141.11 26.5016C141.11 27.15 141.323 27.6621 141.751 28.0378C142.178 28.4136 142.768 28.6014 143.519 28.6014Z" fill="white"/>
<path d="M131.55 30.2814C130.113 30.2814 128.974 29.7509 128.135 28.69C127.302 27.6216 126.886 26.1776 126.886 24.3577C126.886 23.1494 127.074 22.1032 127.449 21.2191C127.832 20.3349 128.37 19.6534 129.063 19.1745C129.763 18.6956 130.592 18.4562 131.55 18.4562C132.655 18.4562 133.605 18.8098 134.401 19.5171V14.9639L136.324 14.0576V30.0162H134.401V29.132C133.657 29.8983 132.706 30.2814 131.55 30.2814ZM131.815 28.491C132.345 28.491 132.835 28.3584 133.285 28.0932C133.741 27.8279 134.114 27.4522 134.401 26.9659V21.6611C134.114 21.2191 133.741 20.8691 133.285 20.6112C132.828 20.3534 132.338 20.2244 131.815 20.2244C130.864 20.2244 130.128 20.5818 129.604 21.2964C129.089 22.0111 128.831 23.0315 128.831 24.3577C128.831 25.1756 128.956 25.8939 129.207 26.5128C129.457 27.1317 129.807 27.618 130.256 27.9716C130.706 28.3179 131.225 28.491 131.815 28.491Z" fill="white"/>
<path d="M121.959 30.0161V18.7213H123.882V30.0161H121.959ZM122.909 16.6657C122.578 16.6657 122.294 16.5515 122.058 16.3231C121.83 16.0874 121.716 15.8037 121.716 15.4722C121.716 15.1259 121.83 14.8348 122.058 14.5991C122.294 14.3559 122.578 14.2344 122.909 14.2344C123.255 14.2344 123.543 14.3559 123.771 14.5991C124.007 14.8348 124.125 15.1259 124.125 15.4722C124.125 15.8037 124.007 16.0874 123.771 16.3231C123.543 16.5515 123.255 16.6657 122.909 16.6657Z" fill="white"/>
<path d="M116.262 30.0162V14.9639L118.185 14.0576V30.0162H116.262Z" fill="white"/>
<path d="M107.789 30.2813C106.566 30.2813 105.604 29.9424 104.904 29.2645C104.204 28.5867 103.854 27.6584 103.854 26.4795C103.854 25.7207 104.027 25.0612 104.374 24.5013C104.72 23.9413 105.21 23.5103 105.844 23.2083C106.477 22.8988 107.221 22.7441 108.076 22.7441C108.629 22.7441 109.144 22.8067 109.623 22.932C110.109 23.0498 110.566 23.2304 110.994 23.4735V22.6778C110.994 21.801 110.795 21.16 110.397 20.7548C109.999 20.3422 109.38 20.1359 108.54 20.1359C108.002 20.1359 107.442 20.2354 106.86 20.4343C106.286 20.6332 105.748 20.9095 105.247 21.2632L104.694 19.6496C105.261 19.2739 105.906 18.9828 106.628 18.7766C107.358 18.5629 108.076 18.4561 108.783 18.4561C110.124 18.4561 111.13 18.7987 111.8 19.4839C112.471 20.1617 112.806 21.1748 112.806 22.5231V30.0161H110.994V28.9772C110.552 29.3972 110.054 29.7213 109.502 29.9497C108.949 30.1708 108.378 30.2813 107.789 30.2813ZM108.076 28.6014C108.599 28.6014 109.115 28.4725 109.623 28.2146C110.139 27.9568 110.596 27.5921 110.994 27.1205V25.1754C110.618 24.9397 110.191 24.7555 109.712 24.6229C109.233 24.4902 108.776 24.4239 108.341 24.4239C107.516 24.4239 106.864 24.6118 106.385 24.9876C105.906 25.356 105.667 25.8606 105.667 26.5016C105.667 27.15 105.88 27.6621 106.308 28.0378C106.735 28.4136 107.324 28.6014 108.076 28.6014Z" fill="white"/>
<path d="M96.6555 30.016L92.5222 18.7212H94.4673L97.1418 26.2584C97.2081 26.4426 97.2707 26.6231 97.3297 26.7999C97.3886 26.9768 97.4439 27.1646 97.4954 27.3636C97.5544 27.1646 97.6096 26.9768 97.6612 26.7999C97.7202 26.6231 97.7828 26.4426 97.8491 26.2584L100.479 18.7212H102.402L98.2691 30.016H96.6555Z" fill="white"/>
<path d="M84.8101 24.3576V22.501H89.9822V24.3576H84.8101Z" fill="white"/>
<path d="M75.8885 30.2813C74.7023 30.2813 73.6818 30.0603 72.8272 29.6182C71.9725 29.1688 71.2763 28.5646 70.7384 27.8058C70.2006 27.0395 69.799 26.1812 69.5338 25.2307C69.2759 24.2729 69.147 23.2893 69.147 22.2799C69.147 21.3148 69.2796 20.3606 69.5448 19.4176C69.8174 18.4745 70.2263 17.6162 70.7716 16.8425C71.3241 16.0689 72.0241 15.45 72.8714 14.9859C73.7187 14.5143 74.7244 14.2786 75.8885 14.2786C76.8757 14.2786 77.7083 14.4333 78.3861 14.7427C79.0713 15.0522 79.646 15.4574 80.1102 15.9584C80.5817 16.4521 80.9906 16.9752 81.3369 17.5277L78.8171 18.9645C78.4782 18.4413 78.0767 17.9845 77.6125 17.5941C77.1557 17.2036 76.581 17.0083 75.8885 17.0083C75.1664 17.0083 74.5623 17.1704 74.076 17.4946C73.5971 17.8188 73.214 18.2424 72.9266 18.7655C72.6393 19.2886 72.433 19.8596 72.3077 20.4785C72.1825 21.09 72.1199 21.6905 72.1199 22.2799C72.1199 22.9504 72.1899 23.5988 72.3298 24.225C72.4698 24.8513 72.6909 25.4149 72.9929 25.9159C73.295 26.4169 73.6855 26.8148 74.1644 27.1095C74.6433 27.3968 75.218 27.5405 75.8885 27.5405C76.3968 27.5405 76.8573 27.4263 77.2699 27.1979C77.6899 26.9695 78.0214 26.6638 78.2646 26.2806C78.5077 25.8901 78.6293 25.4518 78.6293 24.9655V24.6781H75.999V21.9705H81.5801V24.2029C81.5801 25.5144 81.3259 26.6232 80.8175 27.5295C80.3165 28.4283 79.635 29.1135 78.7729 29.5851C77.9183 30.0492 76.9568 30.2813 75.8885 30.2813Z" fill="white"/>
<path d="M59.9479 30.2813C58.7101 30.2813 57.6602 30.0492 56.7981 29.5851C55.9361 29.1135 55.2399 28.491 54.7094 27.7173C54.1863 26.9364 53.8032 26.0743 53.56 25.1313C53.3169 24.1882 53.1953 23.2377 53.1953 22.2799C53.1953 21.3221 53.3169 20.3717 53.56 19.4286C53.8032 18.4855 54.1863 17.6272 54.7094 16.8536C55.2399 16.0726 55.9361 15.45 56.7981 14.9859C57.6602 14.5143 58.7101 14.2786 59.9479 14.2786C61.1856 14.2786 62.2319 14.5143 63.0865 14.9859C63.9485 15.45 64.6411 16.0726 65.1642 16.8536C65.6947 17.6272 66.0778 18.4855 66.3136 19.4286C66.5567 20.3717 66.6783 21.3221 66.6783 22.2799C66.6783 23.2377 66.5567 24.1882 66.3136 25.1313C66.0778 26.0743 65.6947 26.9364 65.1642 27.7173C64.6411 28.491 63.9485 29.1135 63.0865 29.5851C62.2319 30.0492 61.1856 30.2813 59.9479 30.2813ZM59.9479 27.5295C60.6404 27.5295 61.2262 27.3674 61.7051 27.0432C62.1913 26.719 62.5818 26.2954 62.8765 25.7723C63.1712 25.2491 63.3849 24.6818 63.5175 24.0703C63.6502 23.4514 63.7165 22.8546 63.7165 22.2799C63.7165 21.661 63.6502 21.0422 63.5175 20.4233C63.3923 19.797 63.1823 19.2297 62.8876 18.7213C62.6002 18.2056 62.2134 17.793 61.7272 17.4835C61.2483 17.1667 60.6552 17.0083 59.9479 17.0083C59.2332 17.0083 58.6327 17.1704 58.1464 17.4946C57.6675 17.8188 57.2807 18.2461 56.986 18.7766C56.6987 19.2997 56.4887 19.8707 56.3561 20.4896C56.2308 21.1011 56.1682 21.6979 56.1682 22.2799C56.1682 22.8915 56.2308 23.5067 56.3561 24.1256C56.4887 24.7445 56.7024 25.3118 56.9971 25.8275C57.2991 26.3433 57.6896 26.7558 58.1685 27.0653C58.6548 27.3747 59.2479 27.5295 59.9479 27.5295Z" fill="white"/>
<path d="M43.4585 30.016L37.9658 14.5437H41.0603L44.5194 24.7886C44.571 24.9433 44.6226 25.1054 44.6742 25.2748C44.7331 25.4369 44.781 25.588 44.8178 25.7279C44.8399 25.6027 44.8731 25.459 44.9173 25.2969C44.9689 25.1275 45.0241 24.958 45.0831 24.7886L48.5201 14.5437H51.5814L46.1109 30.016H43.4585Z" fill="white"/>
<path d="M31.4373 6.73696C32.0917 5.05814 30.706 3.29245 28.9198 3.5291L20.5522 4.63764C19.7011 4.7504 18.9777 5.31496 18.6615 6.11316L8.7271 31.1917C8.11131 32.7462 9.2568 34.4321 10.9288 34.4321L19.022 34.4321C19.998 34.4321 20.874 33.8334 21.2285 32.9241L31.4373 6.73696Z" fill="#CCCCCC"/>
<path d="M0.901967 16.3864C0.209368 14.702 1.59784 12.8989 3.40326 13.1381L11.7599 14.2452C12.5713 14.3527 13.2696 14.8715 13.6068 15.6172L20.6283 31.1469C21.337 32.7144 20.1907 34.4908 18.4704 34.4908L9.93321 34.4908C8.97314 34.4908 8.10806 33.9111 7.74294 33.0232L0.901967 16.3864Z" fill="white"/>
</svg>
