<svg width="164" height="32" viewBox="0 0 164 32" fill="none" xmlns="http://www.w3.org/2000/svg">
<path d="M162.391 25.1155V12.5207L164 11.7625V25.1155H162.391Z" fill="#002344"/>
<path d="M151.877 25.1155V15.6648H153.486V16.6265C153.776 16.2258 154.124 15.9299 154.531 15.7388C154.938 15.5415 155.403 15.4429 155.927 15.4429C157.074 15.4429 157.925 15.7912 158.48 16.4878C159.035 17.1783 159.312 18.2417 159.312 19.6781V25.1155H157.703V19.4007C157.703 18.6054 157.524 17.9951 157.167 17.5697C156.815 17.1382 156.316 16.9224 155.669 16.9224C154.947 16.9224 154.402 17.129 154.032 17.542C153.668 17.9489 153.486 18.5561 153.486 19.3637V25.1155H151.877Z" fill="#002344"/>
<path d="M148.26 25.3558C147.902 25.3558 147.6 25.2294 147.353 24.9766C147.107 24.7239 146.983 24.431 146.983 24.0981C146.983 23.7652 147.107 23.4693 147.353 23.2104C147.6 22.9515 147.902 22.822 148.26 22.822C148.623 22.822 148.928 22.9515 149.175 23.2104C149.428 23.4693 149.554 23.7652 149.554 24.0981C149.554 24.431 149.428 24.7239 149.175 24.9766C148.928 25.2294 148.623 25.3558 148.26 25.3558Z" fill="#002344"/>
<path d="M141.542 25.3375C140.678 25.3375 139.933 25.1248 139.304 24.6994C138.675 24.274 138.191 23.6884 137.852 22.9424C137.513 22.1965 137.343 21.3426 137.343 20.3809C137.343 19.3391 137.519 18.4513 137.87 17.7177C138.222 16.9779 138.712 16.4138 139.341 16.0254C139.969 15.6371 140.703 15.4429 141.542 15.4429C142.25 15.4429 142.901 15.6032 143.493 15.9237C144.085 16.2381 144.556 16.7282 144.908 17.394C145.265 18.0537 145.444 18.9014 145.444 19.937C145.444 20.085 145.438 20.2576 145.425 20.4549C145.419 20.646 145.407 20.8433 145.388 21.0467H138.989C139.051 21.6201 139.193 22.1225 139.415 22.554C139.637 22.9856 139.929 23.3246 140.293 23.5712C140.657 23.8117 141.085 23.9319 141.579 23.9319C141.979 23.9319 142.349 23.861 142.688 23.7192C143.033 23.5774 143.354 23.3585 143.65 23.0626L144.593 24.1168C144.242 24.4682 143.804 24.761 143.28 24.9953C142.762 25.2234 142.183 25.3375 141.542 25.3375ZM138.971 19.6411H143.816C143.816 19.1048 143.727 18.627 143.548 18.2078C143.376 17.7824 143.12 17.4495 142.781 17.2091C142.442 16.9687 142.029 16.8485 141.542 16.8485C140.857 16.8485 140.268 17.0704 139.775 17.5143C139.288 17.9581 139.02 18.6671 138.971 19.6411Z" fill="#002344"/>
<path d="M133.221 25.1154V15.6647H134.83V25.1154H133.221ZM134.016 13.9447C133.738 13.9447 133.501 13.8491 133.304 13.658C133.113 13.4607 133.017 13.2234 133.017 12.946C133.017 12.6562 133.113 12.4127 133.304 12.2154C133.501 12.012 133.738 11.9103 134.016 11.9103C134.306 11.9103 134.546 12.012 134.737 12.2154C134.934 12.4127 135.033 12.6562 135.033 12.946C135.033 13.2234 134.934 13.4607 134.737 13.658C134.546 13.8491 134.306 13.9447 134.016 13.9447Z" fill="#002344"/>
<path d="M129.2 25.3375C128.552 25.3375 128.056 25.1433 127.711 24.7549C127.372 24.3665 127.202 23.8086 127.202 23.0811V17.0704H125.667V15.6648H127.202V12.5392L128.811 11.7625V15.6648H131.142V17.0704H128.811V22.5448C128.811 22.9948 128.888 23.3246 129.042 23.5342C129.203 23.7377 129.452 23.8394 129.792 23.8394C130.223 23.8394 130.692 23.673 131.197 23.34L131.012 24.9121C130.735 25.06 130.445 25.1679 130.143 25.2357C129.847 25.3036 129.533 25.3375 129.2 25.3375Z" fill="#002344"/>
<path d="M119.847 25.3375C118.824 25.3375 118.019 25.0539 117.433 24.4867C116.848 23.9195 116.555 23.1428 116.555 22.1564C116.555 21.5214 116.7 20.9697 116.99 20.5011C117.279 20.0326 117.689 19.672 118.219 19.4192C118.75 19.1603 119.372 19.0308 120.087 19.0308C120.55 19.0308 120.981 19.0832 121.382 19.188C121.789 19.2867 122.171 19.4377 122.529 19.6411V18.9753C122.529 18.2417 122.362 17.7054 122.029 17.3663C121.696 17.0211 121.179 16.8485 120.476 16.8485C120.026 16.8485 119.557 16.9317 119.07 17.0981C118.589 17.2646 118.139 17.4958 117.72 17.7917L117.258 16.4416C117.732 16.1272 118.272 15.8837 118.876 15.711C119.486 15.5323 120.087 15.4429 120.679 15.4429C121.801 15.4429 122.643 15.7295 123.204 16.3029C123.765 16.87 124.045 17.7177 124.045 18.8459V25.1155H122.529V24.2463C122.159 24.5977 121.743 24.8689 121.28 25.06C120.818 25.245 120.34 25.3375 119.847 25.3375ZM120.087 23.9319C120.525 23.9319 120.957 23.824 121.382 23.6082C121.814 23.3925 122.196 23.0873 122.529 22.6927V21.0652C122.214 20.8679 121.857 20.7138 121.456 20.6029C121.055 20.4919 120.673 20.4364 120.309 20.4364C119.619 20.4364 119.073 20.5936 118.673 20.908C118.272 21.2163 118.071 21.6386 118.071 22.1749C118.071 22.7174 118.25 23.1459 118.608 23.4603C118.965 23.7747 119.459 23.9319 120.087 23.9319Z" fill="#002344"/>
<path d="M110.072 25.3375C108.87 25.3375 107.917 24.8936 107.215 24.0059C106.518 23.1119 106.17 21.9036 106.17 20.3809C106.17 19.3699 106.327 18.4945 106.641 17.7547C106.962 17.0149 107.412 16.4447 107.991 16.0439C108.577 15.6432 109.271 15.4429 110.072 15.4429C110.997 15.4429 111.792 15.7388 112.458 16.3306V12.5207L114.067 11.7625V25.1155H112.458V24.3757C111.835 25.0169 111.04 25.3375 110.072 25.3375ZM110.294 23.8394C110.738 23.8394 111.148 23.7284 111.524 23.5065C111.906 23.2846 112.217 22.9702 112.458 22.5633V18.1246C112.217 17.7547 111.906 17.4619 111.524 17.2461C111.142 17.0303 110.732 16.9224 110.294 16.9224C109.499 16.9224 108.882 17.2214 108.445 17.8194C108.013 18.4174 107.797 19.2712 107.797 20.3809C107.797 21.0652 107.902 21.6663 108.112 22.1841C108.321 22.702 108.614 23.1089 108.99 23.4048C109.366 23.6945 109.801 23.8394 110.294 23.8394Z" fill="#002344"/>
<path d="M102.047 25.1154V15.6647H103.656V25.1154H102.047ZM102.842 13.9447C102.565 13.9447 102.328 13.8491 102.13 13.658C101.939 13.4607 101.844 13.2234 101.844 12.946C101.844 12.6562 101.939 12.4127 102.13 12.2154C102.328 12.012 102.565 11.9103 102.842 11.9103C103.132 11.9103 103.373 12.012 103.564 12.2154C103.761 12.4127 103.86 12.6562 103.86 12.946C103.86 13.2234 103.761 13.4607 103.564 13.658C103.373 13.8491 103.132 13.9447 102.842 13.9447Z" fill="#002344"/>
<path d="M97.2808 25.1155V12.5207L98.8898 11.7625V25.1155H97.2808Z" fill="#002344"/>
<path d="M90.1905 25.3375C89.1671 25.3375 88.3626 25.0539 87.7769 24.4867C87.1913 23.9195 86.8984 23.1428 86.8984 22.1564C86.8984 21.5214 87.0433 20.9697 87.3331 20.5011C87.6228 20.0326 88.0328 19.672 88.5629 19.4192C89.0931 19.1603 89.7158 19.0308 90.4309 19.0308C90.8933 19.0308 91.3248 19.0832 91.7255 19.188C92.1324 19.2867 92.5146 19.4377 92.8722 19.6411V18.9753C92.8722 18.2417 92.7057 17.7054 92.3728 17.3663C92.0399 17.0211 91.5221 16.8485 90.8193 16.8485C90.3692 16.8485 89.9007 16.9317 89.4137 17.0981C88.9328 17.2646 88.4828 17.4958 88.0636 17.7917L87.6012 16.4416C88.0759 16.1272 88.6153 15.8837 89.2195 15.711C89.8298 15.5323 90.4309 15.4429 91.0227 15.4429C92.1447 15.4429 92.9862 15.7295 93.5472 16.3029C94.1082 16.87 94.3887 17.7177 94.3887 18.8459V25.1155H92.8722V24.2463C92.5023 24.5977 92.0862 24.8689 91.6238 25.06C91.1614 25.245 90.6837 25.3375 90.1905 25.3375ZM90.4309 23.9319C90.8686 23.9319 91.3001 23.824 91.7255 23.6082C92.1571 23.3925 92.5393 23.0873 92.8722 22.6927V21.0652C92.5578 20.8679 92.2002 20.7138 91.7995 20.6029C91.3988 20.4919 91.0166 20.4364 90.6528 20.4364C89.9624 20.4364 89.4168 20.5936 89.0161 20.908C88.6154 21.2163 88.415 21.6386 88.415 22.1749C88.415 22.7174 88.5938 23.1459 88.9513 23.4603C89.3089 23.7747 89.8021 23.9319 90.4309 23.9319Z" fill="#002344"/>
<path d="M80.875 25.1154L77.4165 15.6647H79.044L81.2819 21.9713C81.3374 22.1254 81.3898 22.2765 81.4391 22.4244C81.4884 22.5724 81.5346 22.7296 81.5778 22.896C81.6271 22.7296 81.6733 22.5724 81.7165 22.4244C81.7658 22.2765 81.8182 22.1254 81.8737 21.9713L84.0745 15.6647H85.6836L82.2251 25.1154H80.875Z" fill="#002344"/>
<path d="M70.9636 20.3808V18.8273H75.2913V20.3808H70.9636Z" fill="#002344"/>
<path d="M63.4985 25.3373C62.506 25.3373 61.6521 25.1524 60.937 24.7825C60.2219 24.4064 59.6393 23.9009 59.1893 23.2659C58.7392 22.6248 58.4033 21.9066 58.1813 21.1113C57.9655 20.3099 57.8577 19.4869 57.8577 18.6423C57.8577 17.8347 57.9686 17.0364 58.1906 16.2473C58.4187 15.4582 58.7608 14.7399 59.217 14.0926C59.6794 13.4453 60.265 12.9275 60.974 12.5391C61.683 12.1445 62.5245 11.9473 63.4985 11.9473C64.3246 11.9473 65.0212 12.0767 65.5884 12.3357C66.1617 12.5946 66.6426 12.9336 67.031 13.3529C67.4255 13.7659 67.7677 14.2036 68.0574 14.666L65.949 15.8681C65.6655 15.4304 65.3295 15.0482 64.9411 14.7214C64.5589 14.3947 64.078 14.2313 63.4985 14.2313C62.8944 14.2313 62.3888 14.367 61.982 14.6382C61.5812 14.9095 61.2607 15.264 61.0202 15.7017C60.7798 16.1394 60.6072 16.6171 60.5024 17.135C60.3976 17.6467 60.3452 18.1491 60.3452 18.6423C60.3452 19.2033 60.4037 19.7458 60.5209 20.2698C60.638 20.7938 60.823 21.2654 61.0757 21.6847C61.3285 22.1039 61.6552 22.4368 62.0559 22.6834C62.4566 22.9238 62.9375 23.044 63.4985 23.044C63.9239 23.044 64.3092 22.9484 64.6544 22.7573C65.0058 22.5662 65.2832 22.3104 65.4867 21.9898C65.6901 21.6631 65.7918 21.2963 65.7918 20.8894V20.649H63.591V18.3834H68.2609V20.2513C68.2609 21.3487 68.0482 22.2765 67.6228 23.0348C67.2036 23.7869 66.6333 24.3602 65.912 24.7548C65.1969 25.1431 64.3924 25.3373 63.4985 25.3373Z" fill="#002344"/>
<path d="M50.1603 25.3373C49.1246 25.3373 48.2462 25.1431 47.5249 24.7548C46.8036 24.3602 46.221 23.8393 45.7771 23.192C45.3394 22.5385 45.0189 21.8172 44.8154 21.0281C44.612 20.239 44.5103 19.4437 44.5103 18.6423C44.5103 17.8409 44.612 17.0456 44.8154 16.2565C45.0189 15.4674 45.3394 14.7492 45.7771 14.1019C46.221 13.4484 46.8036 12.9275 47.5249 12.5391C48.2462 12.1445 49.1246 11.9473 50.1603 11.9473C51.196 11.9473 52.0714 12.1445 52.7866 12.5391C53.5079 12.9275 54.0874 13.4484 54.5251 14.1019C54.9689 14.7492 55.2895 15.4674 55.4868 16.2565C55.6902 17.0456 55.7919 17.8409 55.7919 18.6423C55.7919 19.4437 55.6902 20.239 55.4868 21.0281C55.2895 21.8172 54.9689 22.5385 54.5251 23.192C54.0874 23.8393 53.5079 24.3602 52.7866 24.7548C52.0714 25.1431 51.196 25.3373 50.1603 25.3373ZM50.1603 23.0348C50.7398 23.0348 51.2299 22.8991 51.6307 22.6279C52.0375 22.3566 52.3643 22.0021 52.6109 21.5644C52.8575 21.1267 53.0362 20.652 53.1472 20.1404C53.2582 19.6225 53.3137 19.1232 53.3137 18.6423C53.3137 18.1244 53.2582 17.6066 53.1472 17.0888C53.0424 16.5647 52.8667 16.09 52.6201 15.6647C52.3797 15.2331 52.056 14.8879 51.6492 14.629C51.2484 14.3639 50.7522 14.2313 50.1603 14.2313C49.5624 14.2313 49.0599 14.367 48.653 14.6382C48.2523 14.9095 47.9287 15.267 47.6821 15.7109C47.4416 16.1486 47.2659 16.6264 47.155 17.1442C47.0502 17.6559 46.9978 18.1553 46.9978 18.6423C46.9978 19.154 47.0502 19.6687 47.155 20.1866C47.2659 20.7044 47.4447 21.1791 47.6913 21.6107C47.9441 22.0422 48.2708 22.3874 48.6715 22.6464C49.0784 22.9053 49.5747 23.0348 50.1603 23.0348Z" fill="#002344"/>
<path d="M36.3632 25.1154L31.7673 12.1692H34.3566L37.251 20.7414C37.2941 20.8709 37.3373 21.0065 37.3804 21.1483C37.4298 21.2839 37.4698 21.4103 37.5006 21.5274C37.5191 21.4226 37.5469 21.3024 37.5839 21.1668C37.627 21.025 37.6733 20.8832 37.7226 20.7414L40.5985 12.1692H43.16L38.5826 25.1154H36.3632Z" fill="#002344"/>
<path d="M26.3047 5.63694C26.8523 4.23221 25.6929 2.7548 24.1983 2.95281L17.1968 3.88037C16.4847 3.97472 15.8794 4.4471 15.6148 5.11498L7.30234 26.0991C6.78709 27.3998 7.74557 28.8104 9.14462 28.8104L15.9164 28.8104C16.7331 28.8104 17.4661 28.3095 17.7627 27.5486L26.3047 5.63694Z" fill="#205689"/>
<path d="M0.754707 13.7111C0.175186 12.3018 1.33697 10.793 2.84762 10.9931L9.83993 11.9195C10.5188 12.0094 11.1031 12.4435 11.3853 13.0675L17.2604 26.0617C17.8534 27.3734 16.8943 28.8597 15.4548 28.8597L8.31146 28.8597C7.50814 28.8597 6.78429 28.3747 6.47879 27.6317L0.754707 13.7111Z" fill="#4890D3"/>
</svg>
