<svg width="838" height="597" viewBox="0 0 838 597" fill="none" xmlns="http://www.w3.org/2000/svg">
<path opacity="0.6" fill-rule="evenodd" clip-rule="evenodd" d="M298.915 431.954C297.152 430.628 295.407 429.278 293.681 427.905C293.528 429.744 293.348 431.576 293.141 433.399L295.744 431.435L298.915 431.954ZM80.8597 593.597C-6.40071 579.372 -73 503.707 -73 412.5C-73 311.156 9.22718 229 110.66 229C146.715 229 177.295 229.869 203.146 231.54C207.603 102.909 313.284 0 443 0C572.601 0 678.209 102.726 682.842 231.196C770.739 244.879 838 320.841 838 412.5C838 513.306 756.644 595.127 655.955 595.993L656 596.099H77.5436L80.8597 593.597Z" fill="#EAF4FD"/>
<circle cx="246" cy="320" r="13" fill="white"/>
<rect x="278" y="312" width="230" height="16" rx="6" fill="white"/>
<circle cx="246" cy="382" r="13" fill="white"/>
<rect x="278" y="374" width="230" height="16" rx="6" fill="white"/>
<circle cx="246" cy="444" r="13" fill="white"/>
<rect x="278" y="436" width="230" height="16" rx="6" fill="white"/>
<circle opacity="0.5" cx="404" cy="136" r="104" fill="#4890D3"/>
<path d="M595.678 151.536L592.605 195.671L683.407 175.249L679.622 127.967L595.678 151.536Z" fill="#FDBAA0"/>
<path d="M679.2 41.266C676.652 37.3654 673.528 33.8053 669.774 30.7199C656.966 20.2047 641.157 17.5114 625.327 18.9252C616.602 19.7094 607.868 22.2789 600.783 27.5313C579.601 43.2266 579.137 73.379 564.256 93.6251C562.069 96.6073 558.842 100.033 558.285 103.862C557.676 107.989 562.461 109.723 565.586 111.343C562.925 122.292 561.647 134.076 567.195 144.395C572.939 155.086 585.634 160.348 597.648 160.462C616.066 160.627 632.35 153.125 648.21 144.56C662.926 136.614 675.054 123.747 682.108 108.402C691.626 87.6916 692.028 60.9239 679.21 41.2763L679.2 41.266Z" fill="#FDBAA0"/>
<path d="M712.324 65.8564C705.445 59.3038 711.468 53.3497 706.27 45.3008C701.66 38.1496 691.688 36.447 691.688 36.447C692.658 28.8624 689.265 21.1128 683.809 15.8707C678.354 10.6183 671.042 7.66703 663.617 6.4081C656.192 5.14917 648.592 5.50002 641.084 6.11917C638.001 6.37714 634.67 6.6248 632.03 4.97375C630.555 4.05535 629.462 2.63131 628.039 1.651C624.553 -0.763669 619.851 -0.134204 615.788 1.08345C608.796 3.16791 602.216 6.69704 596.586 11.4025C592.605 11.0207 588.563 10.6389 584.633 11.4232C575.166 13.3013 565.019 19.9055 561.997 29.6364C560.358 34.9094 561.843 40.8326 564.998 45.3214C568.845 50.7905 575.094 54.3713 581.674 55.1658C592.172 56.4144 603.753 53.2981 612.395 47.1376C615.54 44.8983 618.386 42.2463 621.645 40.1825C625.09 38.0052 629.05 36.5192 633.092 36.5811C635.877 36.6327 638.743 37.4686 641.002 39.1506C642.363 40.1619 645.354 42.8964 645.189 44.7126C645.148 45.1873 644.952 45.631 644.735 46.0437C642.899 49.6141 639.785 52.9679 638.517 56.9098C637.795 59.149 637.96 61.5017 638.455 63.7616C638.867 65.65 639.96 67.4971 639.661 69.4578C639.311 71.7073 637.63 73.7815 636.65 75.7731C635.031 79.0545 635.103 83.1409 636.836 86.3501C638.599 89.6213 641.848 91.8399 643.755 95.0182C645.777 98.3822 646.354 102.788 646.859 106.627C647.334 110.239 647.88 113.83 648.674 117.38C649.84 122.642 651.5 130.681 656.543 133.653C665.618 138.988 678.055 142.331 681.778 140.959C685.501 139.586 687.769 134.674 690.904 127.781C694.05 120.888 705.208 113.262 711.231 101.643C717.253 90.034 719.223 72.4193 712.344 65.8564H712.324Z" fill="#2E2928"/>
<path d="M632.618 95.6786C636.99 89.2291 645.24 86.6907 650.355 88.7854C657.946 91.8915 659.895 100.952 658.575 108.206C657.368 114.821 654.615 120.166 649.499 124.82C644.684 129.195 635.908 133.147 629.885 130.444C625.791 128.607 624.646 122.735 625.193 118.762" fill="#FDBAA0"/>
<path d="M630.349 114.119L651.211 102.902" stroke="#E79780" stroke-width="1.5" stroke-miterlimit="10"/>
<path d="M624.615 120.382C624.956 122.704 625.75 130.392 632.876 131.445C636.114 131.919 642.827 132.022 651.82 122.498" stroke="#E79780" stroke-width="1.5" stroke-miterlimit="10"/>
<path d="M632.205 95.1626C634.247 93.0369 641.971 84.4514 653.016 90.2817" stroke="#E79780" stroke-width="1.5" stroke-miterlimit="10"/>
<path d="M596.575 11.3922C596.575 11.3922 589.8 17.594 591.821 26.293" stroke="black" stroke-width="1.5" stroke-miterlimit="10"/>
<path d="M650.19 43.3401C650.19 43.3401 670.187 32.8043 691.678 36.447" stroke="black" stroke-width="1.5" stroke-miterlimit="10"/>
<path d="M594.719 160.596C607.434 159.296 619.737 153.579 628.864 144.447" stroke="#E79780" stroke-width="1.5" stroke-miterlimit="10"/>
<path d="M418.622 333.338C411.001 311.121 398.956 282.506 391.335 260.289C389.396 254.634 387.457 248.979 386.065 243.159C383.28 231.509 382.734 219.436 382.455 207.445C382.373 203.874 382.311 200.294 382.61 196.734C383.28 188.705 385.766 180.956 388.23 173.289C389.798 168.428 391.355 163.568 392.923 158.708C393.861 155.798 395.212 152.475 398.13 151.701C402.936 150.432 405.226 159.131 405.226 159.131C405.226 159.131 406.556 154.136 407.113 151.66C407.67 149.183 409.66 146.036 412.114 146.5C413.661 146.789 415.796 148.884 416.518 150.298C418.673 154.549 418.983 157.49 418.91 161.969C419.271 159.688 422.097 157.634 424.077 158.77C429.491 161.865 431.646 176.653 431.646 176.653C431.646 176.653 432.853 170.059 436.163 172.835C440.825 176.725 441.763 184.794 441.918 189.149C442.361 202.027 448.25 217.754 454.262 229.105C457.789 235.76 462.326 241.849 465.348 248.762C469.741 258.824 467.658 270.556 472.01 280.071C474.753 286.076 477.506 292.082 480.249 298.088" fill="#FDBAA0"/>
<path d="M599.535 209.116C591.832 196.424 582.622 184.701 572.186 174.29C567.102 169.213 558.986 161.267 553.036 157.304C535.381 145.551 516.57 144.767 495.543 143.631C494.337 143.57 493.027 143.539 492.016 144.23C490.387 145.355 490.325 147.945 491.377 149.648C492.418 151.35 494.223 152.372 495.945 153.331C493.625 152.733 488.654 151.918 488.314 153.765C487.479 158.347 493.316 162.206 493.316 162.206C493.316 162.206 491.232 162.082 490.748 163.083C490.263 164.084 491.676 168.015 493.429 169.728C495.182 171.452 499.575 173.639 499.575 173.639C499.575 173.639 497.265 172.546 496.564 173.567C495.873 174.589 496.77 176.962 497.843 178.314C502.298 183.959 508.341 188.004 514.281 191.935C519.489 195.382 524.882 199.004 528.121 204.432C529.585 206.888 530.544 209.612 531.678 212.253C535.566 221.345 541.712 229.662 550.086 234.605C553.685 236.73 557.614 238.196 561.368 240.022C565.978 242.272 570.33 245.089 574.3 248.391" fill="#FDBAA0"/>
<path d="M577.477 241.322L428.439 271.547L312 109.063L313.268 104.532L460.408 77.806L578.745 236.803L577.477 241.322Z" fill="#3C78B0"/>
<path d="M578.745 236.803L429.718 267.017L313.269 104.532L462.306 74.3181L578.745 236.803Z" fill="#4890D3"/>
<path d="M578.745 236.803L429.718 267.017L313.269 104.532" stroke="#4890D3" stroke-width="1.5" stroke-miterlimit="10"/>
<path d="M566.7 228.021L431.347 255.47L325.592 107.896L460.945 80.458L566.7 228.021Z" fill="white"/>
<path d="M422.953 79.8492L362.789 92.0463C362.181 92.1702 361.903 92.9235 362.294 93.4394L368.616 101.87C369.338 102.83 370.514 103.294 371.669 103.057L431.832 90.8596C432.441 90.7358 432.719 89.9825 432.327 89.4666L426.006 81.0359C425.284 80.0762 424.108 79.6118 422.953 79.8492Z" fill="#4890D3"/>
<mask id="mask0_155_5424" style="mask-type:luminance" maskUnits="userSpaceOnUse" x="358" y="106" width="196" height="142">
<path d="M553.232 225.503L444.063 247.638L358.757 128.617L467.937 106.483L553.232 225.503Z" fill="white"/>
</mask>
<g mask="url(#mask0_155_5424)">
<path d="M493.522 111.972L339.133 143.27" stroke="#5A8FC1" stroke-width="3" stroke-miterlimit="10"/>
<path d="M502.845 125.831L348.465 157.139" stroke="#5A8FC1" stroke-width="3" stroke-miterlimit="10"/>
<path d="M512.178 139.7L357.788 171.008" stroke="#5A8FC1" stroke-width="3" stroke-miterlimit="10"/>
<path d="M521.5 153.569L367.111 184.877" stroke="#5A8FC1" stroke-width="3" stroke-miterlimit="10"/>
<path d="M530.823 167.438L376.433 198.746" stroke="#5A8FC1" stroke-width="3" stroke-miterlimit="10"/>
<path d="M540.145 181.306L385.756 212.604" stroke="#5A8FC1" stroke-width="3" stroke-miterlimit="10"/>
<path d="M549.468 195.175L395.078 226.473" stroke="#5A8FC1" stroke-width="3" stroke-miterlimit="10"/>
<path d="M540.919 212.666L491.934 222.593" stroke="#5A8FC1" stroke-width="3" stroke-miterlimit="10"/>
</g>
<path d="M553.902 164.074C550.612 163.197 545.941 160.152 540.289 158.377C531.421 155.591 528.451 156.479 519.53 153.796C518.705 153.548 517.787 153.3 516.993 153.651C516.137 154.033 515.673 154.993 515.446 155.922C514.157 161.091 518.54 165.446 522.923 168.377C527.306 171.318 534.617 173.866 539.072 176.684C547.457 181.977 550.695 191.77 555.81 199.747C561.781 209.075 572.031 214.627 583.087 214.617" fill="#FDBAA0"/>
<path d="M553.902 164.074C550.612 163.197 545.941 160.152 540.289 158.377C531.421 155.591 528.451 156.479 519.53 153.796C518.705 153.548 517.787 153.3 516.993 153.651C516.137 154.033 515.673 154.993 515.446 155.922C514.157 161.091 518.54 165.446 522.923 168.377C527.306 171.318 534.617 173.866 539.072 176.684C547.457 181.977 550.695 191.77 555.81 199.747C561.781 209.075 572.031 214.627 583.087 214.617" stroke="#E79780" stroke-width="1.5" stroke-miterlimit="10"/>
<path d="M397.79 238.588C399.894 232.076 399.162 224.771 399.554 216.278C399.873 209.426 400.049 202.698 399.956 195.846C399.946 194.917 399.935 193.958 400.255 193.101C401.4 190.057 406.659 190.996 408.495 192.173C416.807 197.507 415.93 217.661 418.838 229.187C419.539 231.963 420.499 234.656 421.777 237.143C423.417 240.321 425.541 243.118 427.635 245.925C431.481 251.084 436.06 256.698 437.978 262.941C439.907 269.215 439.67 278.946 439.69 285.457" fill="#FDBAA0"/>
<path d="M397.79 238.588C399.894 232.076 399.162 224.771 399.554 216.278C399.873 209.426 400.049 202.698 399.956 195.846C399.946 194.917 399.935 193.958 400.255 193.101C401.4 190.057 406.659 190.996 408.495 192.173C416.807 197.507 415.93 217.661 418.838 229.187C419.539 231.963 420.499 234.656 421.777 237.143C423.417 240.321 425.541 243.118 427.635 245.925C431.481 251.084 436.06 256.698 437.978 262.941C439.907 269.215 439.67 278.946 439.69 285.457" stroke="#E79780" stroke-width="1.5" stroke-miterlimit="10"/>
<path d="M745.468 193.225C751.8 201.016 757.008 213.956 760.092 223.78C764.031 236.328 763.763 249.722 763.959 262.755C764.247 282.351 763.113 301.906 762.412 321.481C761.412 349.095 760.277 376.864 755.183 404.085C750.975 426.571 743.952 470.509 713.829 470.891C689.512 471.201 666.876 456.837 651.345 438.118C635.815 419.399 626.214 396.573 616.829 374.119C606.362 349.064 595.895 324.009 585.427 298.954L635.433 248.391L704.465 365.595" fill="#205689"/>
<path d="M572.629 210.262C572.629 210.262 580.209 193.504 582.602 190.49C587.706 184.072 615.777 170.626 639.723 164.352C657.739 159.636 682.799 160.689 686.068 163.341C689.337 165.993 694.514 185.217 694.514 185.217L572.619 210.262H572.629Z" fill="white"/>
<path d="M665.226 531.578C665.432 532.806 672.538 566.343 677.055 587.621C709.096 581.966 732.516 575.537 732.516 575.537C732.516 575.537 729.319 534.034 726.741 510.372C724.317 488.207 718.625 459.117 721.44 436.869C726.782 394.613 738.961 319.211 738.961 319.211C738.961 319.211 754.316 278.585 756.193 248.401C757.616 225.648 755.193 212.274 749.088 199.334C737.125 174.001 705.022 174.919 687.883 176.735C670.454 178.582 619.211 191.543 619.211 191.543C619.211 191.543 504.02 358.248 500.771 403.766C497.523 449.283 484.127 559.986 484.127 559.986C484.127 559.986 520.86 592.626 578.497 595.639C603.928 596.97 631.896 594.483 656.945 590.861C659.389 572.266 664.989 530.174 665.226 531.578Z" fill="#205689"/>
<path d="M753.708 260.712C750.975 283.249 743.828 301.328 738.157 323.308C738.157 323.308 721.646 425.209 721.182 439.17C720.708 453.132 721.852 470.902 721.852 470.902" stroke="#18436B" stroke-width="1.5" stroke-miterlimit="10"/>
<path d="M419.673 350.003L406.958 312.885L474.505 283.6L499.503 335.587" fill="white"/>
<path d="M530.647 380.011L481.549 294.94L410.268 327.662C410.268 327.662 449.951 452.709 475.733 486.762C494.048 510.95 531.761 512.962 556.892 461.563C582.035 410.163 607.146 301.173 607.146 301.173L657.203 183.443C645.9 185.847 634.587 188.262 623.285 190.666C616.386 192.142 609.476 193.607 602.66 195.454C584.901 200.252 567.875 207.548 551.427 215.886C546.116 218.579 540.825 221.396 536.102 225.049C529.925 229.827 524.841 235.925 520.273 242.303C499.771 270.907 468.648 394.592 468.648 394.592" fill="#205689"/>
<path d="M475.743 486.762C494.058 510.95 531.771 512.962 556.903 461.563C582.045 410.163 607.156 301.173 607.156 301.173" stroke="#18436B" stroke-width="1.5" stroke-miterlimit="10"/>
<path d="M491.841 312.761C491.841 312.761 476.176 380.754 473.763 390.33C471.35 399.906 467.245 424.104 471.628 433.454" stroke="#18436B" stroke-width="1.5" stroke-miterlimit="10"/>
<path d="M597.978 338.033C604.918 329.623 610.992 320.707 616.118 311.42" stroke="#18436B" stroke-width="1.5" stroke-miterlimit="10"/>
<path d="M429.46 318.86L445.372 356.514" stroke="#18436B" stroke-width="1.5" stroke-miterlimit="10"/>
<path d="M428.924 331.305C429.666 332.873 428.583 334.947 426.49 335.938C424.407 336.929 422.118 336.454 421.375 334.886C420.633 333.317 421.715 331.243 423.809 330.252C425.892 329.262 428.181 329.736 428.924 331.305Z" fill="#4E4E72"/>
<path d="M434.616 346.422C435.359 347.991 434.276 350.065 432.183 351.056C430.1 352.046 427.81 351.572 427.068 350.003C426.325 348.435 427.408 346.36 429.501 345.37C431.585 344.379 433.874 344.854 434.616 346.422Z" fill="#4E4E72"/>
<path d="M534.195 226.618C547.859 222.346 559.811 221.933 574.64 231.065C587.418 238.939 609.136 268.967 607.166 301.173" stroke="#18436B" stroke-width="1.5" stroke-miterlimit="10"/>
<path fill-rule="evenodd" clip-rule="evenodd" d="M438.828 105.577L440.073 113.64C438.363 114.495 436.579 115.06 434.721 115.334C432.4 115.677 430.513 115.252 429.063 114.06C427.625 112.858 426.71 110.984 426.317 108.438C425.924 105.892 426.329 103.811 427.534 102.197C428.745 100.582 430.614 99.5878 433.14 99.2145C434.723 98.9806 436.299 99.0741 437.868 99.4951L437.188 102.294C435.961 101.895 434.745 101.784 433.542 101.962C432.128 102.171 431.07 102.821 430.367 103.911C429.664 104.994 429.44 106.362 429.695 108.015C429.949 109.66 430.486 110.879 431.306 111.672C432.133 112.456 433.2 112.752 434.509 112.558C435.17 112.461 435.852 112.287 436.555 112.038L436.054 108.794L433.131 109.226L432.707 106.481L438.828 105.577ZM411.842 116.649C410.361 115.453 409.421 113.56 409.021 110.97C408.621 108.381 408.95 106.311 410.007 104.762C411.07 103.204 412.784 102.25 415.149 101.901C417.521 101.55 419.444 101.97 420.916 103.161C422.389 104.351 423.325 106.237 423.723 108.82C424.121 111.395 423.793 113.468 422.739 115.039C421.686 116.61 419.976 117.57 417.611 117.919C415.246 118.269 413.323 117.846 411.842 116.649ZM415.583 104.645C414.281 104.838 413.367 105.426 412.843 106.411C412.317 107.388 412.188 108.746 412.456 110.484C412.996 113.982 414.572 115.538 417.184 115.152C419.796 114.767 420.831 112.825 420.291 109.327C419.75 105.822 418.181 104.261 415.583 104.645ZM400.078 120.344L403.647 119.816L406.493 103.482L403.188 103.971L401.693 113.661C401.493 115.353 401.405 116.534 401.43 117.205C401.332 116.9 401.15 116.419 400.883 115.762C400.615 115.098 400.346 114.477 400.077 113.9L395.744 105.071L392.439 105.559L400.078 120.344Z" fill="#4890D3"/>
<path d="M375.87 111.558C376.192 110.511 375.264 109.495 374.184 109.714L369.127 110.737C368.613 110.842 368.198 111.215 368.042 111.713L363.14 127.373C362.836 128.343 363.613 129.32 364.634 129.25L369.575 128.912C370.17 128.871 370.677 128.471 370.852 127.903L375.87 111.558Z" fill="#205689"/>
<path d="M357.738 118.72C357.241 117.725 357.999 116.571 359.104 116.641L364.218 116.964C364.715 116.996 365.162 117.282 365.4 117.721L370.369 126.867C370.87 127.791 370.258 128.918 369.215 128.99L364.043 129.347C363.461 129.387 362.91 129.071 362.648 128.547L357.738 118.72Z" fill="#4890D3"/>
</svg>
