<svg width="40" height="40" viewBox="0 0 40 40" fill="none" xmlns="http://www.w3.org/2000/svg">
<circle cx="20" cy="20" r="19.5" stroke="#4890D3"/>
<path d="M19.9131 13.9658C21.126 13.9658 22.0723 14.2764 22.752 14.8975C23.4316 15.5068 23.7715 16.3359 23.7715 17.3848C23.7715 18.1934 23.5459 18.9961 23.0947 19.793C22.6436 20.5898 21.7881 21.6006 20.5283 22.8252L17.7158 25.5762V25.6465H24.3252V27H15.8701V25.7432L19.2627 22.3418C20.3291 21.2578 21.0176 20.502 21.3281 20.0742C21.6387 19.6465 21.876 19.2275 22.04 18.8174C22.2041 18.4072 22.2861 17.9502 22.2861 17.4463C22.2861 16.7549 22.0752 16.21 21.6533 15.8115C21.2373 15.4131 20.6631 15.2139 19.9307 15.2139C19.3975 15.2139 18.8906 15.3018 18.4102 15.4775C17.9355 15.6533 17.4053 15.9727 16.8193 16.4355L16.0459 15.4424C17.2295 14.458 18.5186 13.9658 19.9131 13.9658Z" fill="#4890D3"/>
</svg>
