<svg width="40" height="40" viewBox="0 0 40 40" fill="none" xmlns="http://www.w3.org/2000/svg">
<circle cx="20" cy="20" r="19.5" stroke="#4890D3"/>
<path d="M19.8955 13.9658C21.1377 13.9658 22.1045 14.2529 22.7959 14.8271C23.4932 15.3955 23.8418 16.1777 23.8418 17.1738C23.8418 17.9883 23.6133 18.6592 23.1562 19.1865C22.6992 19.708 22.0459 20.0566 21.1963 20.2324V20.3027C22.2158 20.4258 22.9775 20.748 23.4814 21.2695C23.9854 21.791 24.2373 22.4883 24.2373 23.3613C24.2373 24.5918 23.8125 25.5352 22.9629 26.1914C22.1133 26.8477 20.9062 27.1758 19.3418 27.1758C17.9473 27.1758 16.7725 26.9443 15.8174 26.4814V25.0928C16.96 25.6553 18.1523 25.9365 19.3945 25.9365C21.6152 25.9365 22.7256 25.0664 22.7256 23.3262C22.7256 21.7676 21.501 20.9883 19.0518 20.9883H17.7861V19.7314H19.0693C20.0713 19.7314 20.8652 19.5117 21.4512 19.0723C22.0371 18.627 22.3301 18.0117 22.3301 17.2266C22.3301 16.5996 22.1133 16.1074 21.6797 15.75C21.252 15.3926 20.6689 15.2139 19.9307 15.2139C19.3799 15.2139 18.8525 15.29 18.3486 15.4424C17.8506 15.5889 17.2793 15.8701 16.6348 16.2861L15.8965 15.3018C16.4297 14.8799 17.042 14.5518 17.7334 14.3174C18.4248 14.083 19.1455 13.9658 19.8955 13.9658Z" fill="#4890D3"/>
</svg>
