<svg width="911" height="596" viewBox="0 0 911 596" fill="none" xmlns="http://www.w3.org/2000/svg">
<path opacity="0.6" fill-rule="evenodd" clip-rule="evenodd" d="M371.126 431.358C369.63 430.224 368.149 429.073 366.681 427.905C366.54 429.602 366.376 431.292 366.189 432.976L368.879 431L371.126 431.358ZM224.311 591.49C211.235 594.442 197.629 596 183.66 596C82.2272 596 0 513.844 0 412.5C0 311.156 82.2272 229 183.66 229C219.715 229 250.295 229.869 276.146 231.54C280.603 102.909 386.284 0 516 0C645.593 0 751.196 102.713 755.841 231.172C843.739 244.705 911 319.84 911 410.5C911 497.196 849.492 569.694 767.249 587.703C768.421 589.468 769.043 590.612 769 591C768.607 594.533 387.924 592.519 224.311 591.49Z" fill="white"/>
</svg>
