<svg width="925" height="597" viewBox="0 0 925 597" fill="none" xmlns="http://www.w3.org/2000/svg">
<path opacity="0.6" fill-rule="evenodd" clip-rule="evenodd" d="M371.915 431.954C370.152 430.628 368.407 429.278 366.681 427.905C366.528 429.744 366.348 431.576 366.141 433.399L368.744 431.435L371.915 431.954ZM153.86 593.597C66.5993 579.372 0 503.707 0 412.5C0 311.156 82.2272 229 183.66 229C219.715 229 250.295 229.869 276.146 231.54C280.603 102.909 386.284 0 516 0C645.601 0 751.209 102.726 755.842 231.196C843.739 244.879 911 320.841 911 412.5C911 500.531 848.957 574.085 766.177 591.89L769.454 596.099H150.544L153.86 593.597Z" fill="white"/>
<path d="M150 189.128L365.199 148.79L415.479 416.344L200.281 456.682L150 189.128Z" fill="#8EC0EF"/>
<path d="M160.435 161.74L192.944 394.201L417.999 362.807L378.871 83L196.147 108.486L160.435 161.74Z" fill="white"/>
<path d="M188.65 216.69C188.085 218.633 189.977 220.206 191.875 219.973C194.004 219.711 194.881 217.376 194.122 215.672C193.311 213.844 191.172 213.186 189.301 214.14C187.442 215.089 186.725 217.288 187.861 218.945C190.951 223.45 197.855 215.548 193.233 213.32C191.476 212.472 189.084 213.508 188.752 215.514C188.431 217.449 190.192 219.277 192.211 218.786C194.208 218.303 195.452 215.83 194.238 214.182C193.231 212.815 191.083 212.899 189.743 213.908C188.07 215.165 188.249 217.497 189.921 218.501C191.486 219.441 193.841 219.043 194.756 217.28C195.614 215.627 194.729 213.572 193.156 212.803C191.25 211.871 189.038 213.045 188.279 214.965C187.461 217.023 188.507 219.183 190.651 219.731C192.663 220.244 194.834 219.164 195.509 217.156C196.175 215.17 195.18 212.853 193.029 212.446C191.241 212.108 189.217 213.144 188.322 214.733C187.273 216.6 188.181 218.753 190.06 219.521C192.017 220.318 194.33 219.677 195.503 217.831C196.493 216.269 193.971 215.084 192.985 216.635C192.588 217.258 191.299 217.204 190.885 216.694C190.391 216.084 191.197 215.414 191.795 215.234C192.646 214.981 193.149 215.755 192.758 216.535C192.283 217.479 190.641 217.112 190.873 216.039C191.061 215.172 192.273 214.983 192.244 215.964C192.236 216.25 192.062 216.248 191.742 216.202C191.679 216.191 191.314 216.006 191.422 216.09C191.448 216.109 191.237 216.103 191.428 216.068C191.598 216.037 191.744 215.897 191.937 215.921C191.784 215.903 191.993 215.742 191.816 215.956C191.66 216.144 191.75 216.108 191.699 216.078C191.555 215.991 191.456 215.722 191.706 215.802C192.154 215.946 191.663 216.587 191.414 216.867C191.153 217.165 190.312 217.906 190.167 217.126C190.099 216.76 190.611 216.412 190.987 216.458C191.367 216.506 191.541 216.827 191.568 217.176C191.577 217.312 191.759 217.164 191.569 217.201C191.551 217.205 191.444 217.178 191.436 217.163C191.347 216.986 191.366 217.42 191.43 217.201C191.94 215.448 189.159 214.942 188.651 216.684L188.65 216.69Z" fill="#5A8FC1"/>
<path d="M210.318 215.531C241.824 209.195 273.198 202.056 304.399 194.123C313.398 191.836 322.379 189.483 331.347 187.065C332.857 186.659 332.169 184.512 330.667 184.918C299.579 193.292 268.307 200.903 236.893 207.7C228.032 209.616 219.158 211.468 210.276 213.255C208.766 213.56 208.796 215.841 210.319 215.533L210.318 215.531Z" fill="#5A8FC1"/>
<path d="M209.859 207.159C233.116 202.472 256.39 197.953 279.439 192.13C287.236 190.159 295.011 188.095 302.776 185.997C305.801 185.18 304.424 180.872 301.411 181.684C278.597 187.85 255.715 193.322 232.607 197.991C224.995 199.529 217.381 201.048 209.768 202.583C208.472 202.844 207.395 203.702 207.406 205.054C207.414 206.165 208.572 207.419 209.857 207.159L209.859 207.159Z" fill="#5A8FC1"/>
<path d="M212.16 222.794C222.529 220.876 232.835 218.558 243.059 215.861C244.574 215.461 243.885 213.302 242.377 213.7C232.362 216.342 222.272 218.622 212.117 220.501C210.595 220.784 210.628 223.078 212.16 222.794Z" fill="#5A8FC1"/>
<path d="M252.851 214.93C263.22 213.011 273.526 210.694 283.75 207.997C285.265 207.596 284.577 205.438 283.069 205.836C273.055 208.477 262.964 210.758 252.808 212.637C251.287 212.92 251.319 215.214 252.851 214.93Z" fill="#5A8FC1"/>
<path d="M194.2 262.137C193.635 264.08 195.527 265.653 197.425 265.42C199.554 265.158 200.431 262.823 199.672 261.119C198.861 259.291 196.723 258.632 194.852 259.587C192.992 260.535 192.276 262.735 193.411 264.392C196.502 268.897 203.406 260.995 198.784 258.767C197.026 257.919 194.634 258.955 194.302 260.961C193.981 262.896 195.742 264.724 197.761 264.233C199.758 263.75 201.002 261.277 199.788 259.629C198.781 258.262 196.634 258.346 195.293 259.355C193.62 260.612 193.8 262.943 195.471 263.948C197.037 264.888 199.391 264.49 200.306 262.727C201.164 261.074 200.28 259.019 198.707 258.25C196.8 257.318 194.589 258.492 193.829 260.412C193.012 262.47 194.058 264.63 196.201 265.178C198.213 265.691 200.384 264.611 201.059 262.603C201.725 260.617 200.73 258.3 198.579 257.893C196.791 257.555 194.767 258.591 193.873 260.18C192.824 262.047 193.731 264.2 195.61 264.968C197.567 265.764 199.88 265.124 201.053 263.278C202.043 261.716 199.521 260.531 198.535 262.082C198.138 262.705 196.849 262.651 196.436 262.141C195.941 261.531 196.747 260.861 197.345 260.681C198.196 260.428 198.699 261.202 198.308 261.982C197.833 262.926 196.192 262.559 196.424 261.486C196.611 260.619 197.823 260.43 197.795 261.411C197.786 261.697 197.612 261.695 197.293 261.648C197.23 261.638 196.864 261.453 196.972 261.537C196.998 261.556 196.787 261.55 196.978 261.515C197.149 261.484 197.295 261.344 197.487 261.368C197.335 261.35 197.544 261.188 197.367 261.403C197.21 261.591 197.301 261.555 197.249 261.525C197.106 261.438 197.006 261.169 197.256 261.249C197.704 261.393 197.213 262.034 196.964 262.314C196.703 262.612 195.862 263.352 195.717 262.573C195.649 262.207 196.161 261.859 196.538 261.905C196.917 261.953 197.091 262.274 197.118 262.623C197.128 262.759 197.309 262.611 197.119 262.648C197.101 262.652 196.994 262.625 196.986 262.61C196.897 262.433 196.916 262.867 196.981 262.648C197.49 260.894 194.709 260.388 194.201 262.131L194.2 262.137Z" fill="#5A8FC1"/>
<path d="M215.868 260.978C247.374 254.642 278.748 247.503 309.949 239.57C318.948 237.283 327.929 234.93 336.897 232.512C338.407 232.106 337.719 229.959 336.217 230.365C305.129 238.739 273.857 246.35 242.442 253.147C233.582 255.063 224.708 256.915 215.826 258.702C214.315 259.007 214.346 261.288 215.869 260.98L215.868 260.978Z" fill="#5A8FC1"/>
<path d="M215.409 252.603C238.666 247.916 261.939 243.398 284.989 237.574C292.786 235.604 300.56 233.54 308.325 231.442C311.35 230.625 309.973 226.316 306.96 227.129C284.146 233.294 261.264 238.767 238.156 243.436C230.544 244.974 222.93 246.492 215.317 248.028C214.022 248.288 212.944 249.146 212.955 250.499C212.963 251.61 214.121 252.863 215.406 252.604L215.409 252.603Z" fill="#5A8FC1"/>
<path d="M217.71 268.241C228.079 266.322 238.385 264.005 248.609 261.308C250.124 260.907 249.436 258.749 247.928 259.147C237.912 261.789 227.822 264.069 217.667 265.948C216.146 266.231 216.178 268.525 217.71 268.241Z" fill="#5A8FC1"/>
<path d="M258.401 260.375C268.769 258.456 279.076 256.138 289.299 253.441C290.815 253.041 290.126 250.882 288.618 251.28C278.602 253.922 268.513 256.202 258.358 258.081C256.836 258.364 256.869 260.659 258.401 260.375Z" fill="#5A8FC1"/>
<path d="M202.724 305.632C202.159 307.575 204.051 309.149 205.949 308.916C208.077 308.653 208.955 306.318 208.195 304.614C207.384 302.786 205.246 302.128 203.375 303.083C201.516 304.031 200.799 306.23 201.935 307.887C205.025 312.392 211.929 304.49 207.307 302.262C205.55 301.414 203.157 302.45 202.826 304.457C202.504 306.392 204.265 308.219 206.284 307.728C208.282 307.245 209.526 304.772 208.312 303.124C207.304 301.757 205.157 301.842 203.817 302.85C202.143 304.107 202.323 306.439 203.995 307.443C205.56 308.384 207.915 307.985 208.829 306.222C209.688 304.569 208.803 302.514 207.23 301.746C205.324 300.813 203.112 301.987 202.352 303.907C201.535 305.965 202.581 308.126 204.724 308.673C206.736 309.187 208.907 308.106 209.582 306.099C210.249 304.112 209.254 301.795 207.103 301.388C205.314 301.051 203.29 302.086 202.396 303.675C201.347 305.542 202.255 307.695 204.134 308.463C206.09 309.26 208.404 308.619 209.577 306.773C210.567 305.211 208.045 304.026 207.058 305.577C206.661 306.201 205.372 306.146 204.959 305.636C204.465 305.027 205.271 304.356 205.869 304.176C206.72 303.923 207.223 304.698 206.831 305.478C206.357 306.421 204.715 306.054 204.947 304.981C205.135 304.114 206.347 303.925 206.318 304.906C206.31 305.193 206.136 305.19 205.816 305.144C205.753 305.134 205.388 304.948 205.496 305.033C205.521 305.052 205.311 305.045 205.501 305.01C205.672 304.98 205.818 304.839 206.011 304.863C205.858 304.845 206.067 304.684 205.89 304.898C205.734 305.086 205.824 305.05 205.773 305.02C205.629 304.933 205.53 304.664 205.78 304.745C206.228 304.888 205.737 305.529 205.488 305.809C205.226 306.107 204.385 306.848 204.241 306.068C204.173 305.702 204.685 305.354 205.061 305.401C205.44 305.448 205.615 305.77 205.642 306.118C205.651 306.254 205.832 306.106 205.642 306.143C205.625 306.147 205.518 306.12 205.51 306.105C205.421 305.928 205.44 306.362 205.504 306.143C206.013 304.39 203.232 303.884 202.725 305.626L202.724 305.632Z" fill="#5A8FC1"/>
<path d="M224.39 304.168C244.505 300.107 264.546 295.98 284.432 290.717C291.766 288.776 299.09 286.792 306.414 284.81C307.924 284.402 307.238 282.259 305.736 282.666C285.891 288.032 266.087 293.317 245.997 297.487C238.785 298.984 231.567 300.435 224.349 301.892C222.837 302.196 222.866 304.476 224.39 304.168Z" fill="#5A8FC1"/>
<path d="M223.932 295.887C239.459 292.744 255.066 290.133 270.427 286.074C277.093 284.313 283.746 282.494 290.402 280.689C293.428 279.869 292.056 275.562 289.041 276.378C279.565 278.95 270.1 281.636 260.562 283.934C259.287 284.24 258.01 284.535 256.728 284.817C256.115 284.953 255.501 285.084 254.885 285.213C254.225 285.351 254.883 285.214 254.483 285.295C254.092 285.375 253.699 285.454 253.307 285.532C250.03 286.189 246.747 286.803 243.467 287.434C236.921 288.692 230.384 289.987 223.848 291.311C222.552 291.574 221.473 292.433 221.482 293.785C221.49 294.896 222.646 296.148 223.932 295.887Z" fill="#5A8FC1"/>
<path d="M226.234 311.744C236.603 309.817 246.91 307.492 257.135 304.789C258.65 304.388 257.964 302.234 256.456 302.632C246.439 305.281 236.349 307.568 226.193 309.455C224.672 309.739 224.702 312.03 226.234 311.744Z" fill="#5A8FC1"/>
<path d="M266.924 303.878C277.293 301.951 287.6 299.626 297.825 296.922C299.34 296.521 298.654 294.367 297.146 294.766C287.129 297.415 277.039 299.701 266.883 301.589C265.362 301.873 265.392 304.163 266.924 303.878Z" fill="#5A8FC1"/>
<path d="M198.68 108.731C201.89 124.515 204.431 140.432 206.288 156.431C206.323 156.736 206.048 157.155 205.733 157.208C191.129 159.67 176.422 161.443 161.648 162.501C160.635 162.574 160.59 160.998 161.6 160.926C176.23 159.877 190.804 158.139 205.268 155.699C205.083 155.959 204.898 156.216 204.711 156.476C202.868 140.614 200.353 124.84 197.172 109.192C196.972 108.206 198.477 107.734 198.68 108.728V108.731Z" fill="#8EC0EF"/>
<path d="M459.476 258.382C452.36 258.482 440.069 259.533 433.118 260.731C410.735 264.595 419.501 278.022 397.12 281.885L430.59 303.8C437.943 308.789 446.864 310.497 455.371 310.22C463.877 309.943 472.103 307.818 480.254 305.702C499.286 300.763 522.059 297.662 541.092 292.725C519.897 275.307 485.637 258.017 459.476 258.382Z" fill="#FDBAA0"/>
<path d="M353.209 301.787C349.344 302.733 345.068 304.322 343.556 308C342.036 311.698 344.153 316.096 347.401 318.435C350.649 320.775 354.745 321.529 358.7 322.154C374.895 324.708 391.269 326.112 407.662 326.349L397.245 301.3C382.788 298.099 367.594 298.269 353.209 301.787Z" fill="#FDBAA0"/>
<path d="M367.772 339.069C364.216 340.855 360.403 343.357 359.753 347.28C359.098 351.225 362.146 355.039 365.836 356.594C369.524 358.15 373.687 357.97 377.683 357.698C394.038 356.574 410.315 354.287 426.344 350.858L410.587 328.769C395.778 328.876 381.006 332.432 367.774 339.072L367.772 339.069Z" fill="#FDBAA0"/>
<path d="M396.465 361.394C393.617 364.171 390.747 367.712 391.317 371.645C391.892 375.603 395.955 378.312 399.941 378.677C403.929 379.041 407.839 377.61 411.562 376.139C426.807 370.114 441.621 363.005 455.855 354.884L434.133 338.607C420.053 343.195 407.057 351.058 396.465 361.394Z" fill="#FDBAA0"/>
<path d="M638.165 393.415C628.326 412.123 609.861 432.063 578.972 454.477C572.438 459.219 578.232 473.967 570.548 478.942C563.345 470.147 543.657 452.242 537.839 445.533C537.539 445.188 537.244 444.851 536.951 444.514C526.517 432.515 519.487 424.939 519.487 424.939C517.351 425.346 515.003 425.793 512.468 426.1C501.064 427.491 485.95 426.067 469.96 405.523C469.145 404.472 468.315 403.446 467.475 402.442C464.519 398.888 461.436 395.607 458.324 392.581C446.897 381.486 435.025 373.887 427.194 369.51C425.612 368.626 424.197 367.876 422.979 367.252H422.974C419.981 365.716 418.203 364.965 418.203 364.965L420.549 364.121L452.753 352.554L504.22 284.282L516.489 329.658L516.751 329.565L516.826 329.538H516.831L520.827 328.099H520.832L521.202 327.962L521.684 327.787L528.86 329.827H528.865L566.693 340.59L567.705 340.88L574.711 342.873C575.836 344.468 578.559 347.1 582.49 350.499C582.905 350.856 583.327 351.22 583.765 351.595C584.085 351.865 584.41 352.142 584.743 352.422C596.677 362.478 617.144 377.945 638.157 393.407L638.165 393.415Z" fill="#FDBAA0"/>
<path d="M565.192 369.827C565.067 369.899 564.912 369.914 564.767 369.854C564.527 369.752 564.417 369.475 564.52 369.237C571.376 353.193 565.565 336.175 565.505 336.005C565.42 335.761 565.547 335.494 565.795 335.406C566.04 335.321 566.31 335.451 566.395 335.696C566.455 335.868 572.383 353.231 565.387 369.607C565.347 369.704 565.277 369.779 565.192 369.827Z" fill="#FDBAA0"/>
<path d="M255.607 357.356L244.855 361.693C233.326 366.343 225.78 377.515 225.78 389.931V464.995C225.78 467.712 227.986 469.915 230.706 469.915H488.62C491.34 469.915 493.545 467.712 493.545 464.995V143.97C493.545 141.253 491.34 139.051 488.62 139.051H281.523C278.802 139.051 276.597 141.253 276.597 143.97V326.279C276.597 339.943 268.293 352.239 255.607 357.353V357.356Z" fill="#4890D3"/>
<path d="M312.724 180.773H451.825C454.051 180.773 455.855 182.575 455.855 184.798V239.364C455.855 241.587 454.051 243.389 451.825 243.389H312.724C310.498 243.389 308.694 241.587 308.694 239.364V184.798C308.694 182.575 310.498 180.773 312.724 180.773Z" fill="white"/>
<path d="M323.464 222.688C352.763 223.639 382.08 223.769 411.371 223.077C419.817 222.878 428.263 222.608 436.707 222.276C438.129 222.221 437.869 219.946 436.454 220.001C407.188 221.157 377.887 221.512 348.59 221.035C340.327 220.9 332.066 220.698 323.804 220.428C322.399 220.383 322.044 222.64 323.464 222.685V222.688Z" fill="#5A8FC1"/>
<path d="M323.64 232.362C333.581 232.809 343.537 232.854 353.483 232.504C354.956 232.452 354.699 230.179 353.231 230.229C343.49 230.571 333.738 230.539 324 230.099C322.542 230.034 322.167 232.292 323.637 232.359L323.64 232.362Z" fill="#5A8FC1"/>
<path d="M362.92 232.999C372.864 233.446 382.817 233.491 392.764 233.141C394.236 233.089 393.979 230.816 392.511 230.866C382.77 231.208 373.019 231.176 363.282 230.736C361.825 230.671 361.45 232.929 362.92 232.996V232.999Z" fill="#5A8FC1"/>
<path d="M502.757 426.979C511.208 427.69 519.699 426.202 527.425 422.714C528.108 422.404 527.513 421.403 526.832 421.71C519.296 425.113 510.99 426.507 502.754 425.815C502.004 425.753 502.014 426.919 502.757 426.981V426.979Z" fill="#E79780"/>
<path d="M567.811 319.217C561.54 311.568 554.706 304.419 547.393 297.857C544.072 294.878 540.605 291.988 536.644 290.098C531.481 287.633 525.78 287.002 520.199 286.405C501.134 284.362 481.312 283.723 460.787 283.138C453.121 282.919 452.808 285.451 452.703 290.051C452.628 293.242 453.911 296.408 456.221 298.658C464.665 306.881 477.576 305.733 489.905 307.286C493.731 307.768 494.901 310.173 499.039 312.752C507.24 317.861 515.281 320.441 515.599 322.341C520.514 351.737 506.75 367.285 536.416 391.065C543.697 396.901 548.573 368.136 557.322 366.663L588.808 372.284C591.214 366.406 580.635 341.801 578.257 335.701C575.877 329.6 571.941 324.256 567.813 319.22L567.811 319.217Z" fill="#FDBAA0"/>
<path d="M518.022 372.454C522.58 386.81 532.621 399.151 545.77 406.53C546.425 406.897 546.995 405.88 546.34 405.513C533.469 398.289 523.615 386.21 519.149 372.152C518.922 371.437 517.794 371.739 518.022 372.454Z" fill="#ECA895"/>
<path d="M582.298 348.663C583.143 356.127 583.503 363.634 583.375 371.145C583.363 371.897 584.53 371.892 584.543 371.143C584.67 363.631 584.31 356.125 583.465 348.661C583.383 347.922 582.215 347.919 582.298 348.663Z" fill="#ECA895"/>
<path d="M455.856 287.536C461.894 291.666 474.606 293.052 477.919 284.757C478.197 284.06 477.064 283.775 476.789 284.464C475.251 288.315 470.923 289.604 467.118 289.554C463.377 289.506 459.542 288.65 456.426 286.517C455.806 286.093 455.241 287.111 455.856 287.533V287.536Z" fill="#ECA895"/>
<path d="M490.328 307.376C500.117 314.415 510.433 321.702 522.625 323.622C523.36 323.737 523.66 322.611 522.917 322.493C510.821 320.588 500.609 313.344 490.898 306.359C490.29 305.922 489.723 306.941 490.328 307.376Z" fill="#ECA895"/>
<path d="M515.014 322.341C516.059 333.668 516.404 345.05 516.049 356.42C516.026 357.171 517.192 357.164 517.217 356.417C517.572 345.048 517.227 333.666 516.181 322.339C516.114 321.597 514.946 321.594 515.014 322.341Z" fill="#ECA895"/>
<path d="M469.865 305.63C476.883 307.413 484.147 308.012 491.363 307.386C492.108 307.321 492.108 306.155 491.36 306.219C484.239 306.836 477.086 306.262 470.16 304.501C469.433 304.317 469.137 305.445 469.868 305.63H469.865Z" fill="#ECA895"/>
<path d="M494.956 283.268C505.55 285.805 516.144 288.342 526.738 290.88C527.468 291.054 527.763 289.926 527.03 289.751C516.436 287.214 505.843 284.677 495.249 282.14C494.519 281.965 494.223 283.093 494.956 283.268Z" fill="#ECA895"/>
<path d="M576.834 492.846C576.834 492.846 542.54 466.816 547.036 460.313C551.531 453.811 585.716 433.921 601.67 410.26C617.625 386.598 626.696 371.038 634.782 371.769C642.871 372.501 681.101 398.626 681.101 398.626L576.837 492.848L576.834 492.846Z" fill="white"/>
<path d="M676.207 387.879L568.798 496.197L631.008 596H777.008H924.508L676.207 387.879Z" fill="#205689"/>
<path d="M405.911 198.603V206.732C404.081 207.325 402.222 207.622 400.335 207.622C397.975 207.622 396.166 206.928 394.908 205.541C393.664 204.147 393.042 202.167 393.042 199.6C393.042 197.033 393.764 195.042 395.208 193.626C396.66 192.211 398.669 191.503 401.235 191.503C402.844 191.503 404.396 191.825 405.89 192.468L404.785 195.128C403.627 194.556 402.437 194.27 401.214 194.27C399.777 194.27 398.626 194.756 397.761 195.728C396.896 196.694 396.463 198.009 396.463 199.675C396.463 201.334 396.81 202.613 397.503 203.514C398.204 204.408 399.219 204.855 400.549 204.855C401.221 204.855 401.925 204.783 402.662 204.64V201.369H399.691V198.603H405.911Z" fill="#4890D3"/>
<path d="M377.491 205.53C376.205 204.136 375.561 202.134 375.561 199.525C375.561 196.915 376.205 194.924 377.491 193.551C378.786 192.171 380.634 191.481 383.036 191.481C385.445 191.481 387.29 192.175 388.57 193.562C389.85 194.949 390.489 196.944 390.489 199.546C390.489 202.142 389.846 204.136 388.559 205.53C387.272 206.925 385.428 207.622 383.025 207.622C380.623 207.622 378.778 206.925 377.491 205.53ZM383.047 194.248C381.724 194.248 380.727 194.695 380.055 195.589C379.383 196.475 379.046 197.795 379.046 199.546C379.046 203.071 380.373 204.833 383.025 204.833C385.678 204.833 387.004 203.071 387.004 199.546C387.004 196.014 385.685 194.248 383.047 194.248Z" fill="#4890D3"/>
<path d="M368.944 207.407H365.319L360 191.728H363.357L366.306 201.058C366.485 201.666 366.656 202.317 366.821 203.01C366.985 203.697 367.092 204.197 367.142 204.512C367.221 203.847 367.489 202.696 367.947 201.058L370.917 191.728H374.274L368.944 207.407Z" fill="#4890D3"/>
<path d="M342.156 190.063C342.554 189.04 341.71 187.964 340.622 188.109L335.523 188.784C335.005 188.853 334.564 189.197 334.371 189.683L328.318 204.964C327.943 205.911 328.641 206.938 329.66 206.938L334.591 206.938C335.186 206.938 335.719 206.574 335.935 206.019L342.156 190.063Z" fill="#205689"/>
<path d="M323.55 195.943C323.128 194.917 323.974 193.818 325.074 193.964L330.166 194.638C330.66 194.704 331.085 195.02 331.291 195.474L335.569 204.937C336.001 205.892 335.303 206.974 334.254 206.974L329.052 206.974C328.468 206.974 327.94 206.621 327.718 206.08L323.55 195.943Z" fill="#4890D3"/>
</svg>
